<svg width="81" height="81" viewBox="0 0 81 81" fill="none" xmlns="http://www.w3.org/2000/svg">
<path opacity="0.4" d="M31.8992 7.76597L13.5659 14.6326C10.0659 15.9326 7.19922 20.0993 7.19922 23.8326V50.8326C7.19922 53.5326 8.96591 57.0993 11.1326 58.6993L29.4659 72.3993C32.6992 74.8326 37.9992 74.8326 41.2326 72.3993L59.5659 58.6993C61.7326 57.066 63.4992 53.5326 63.4992 50.8326V23.8326C63.4992 20.0993 60.6326 15.9326 57.1326 14.6326L38.7993 7.76597C36.8993 7.06597 33.7992 7.06597 31.8992 7.76597Z" fill="#1098F7"/>
<path d="M64.7011 23.0969H41.8678C41.2012 23.0969 40.5678 23.1303 39.9678 23.1303C34.2345 23.4636 32.7012 25.5636 32.7012 32.097V35.147C32.7012 35.5612 33.037 35.897 33.4512 35.897H73.0845C73.4987 35.897 73.8345 35.5612 73.8345 35.147V32.097C73.8345 24.897 72.0011 23.0969 64.7011 23.0969Z" fill="#1098F7"/>
<path d="M33.4824 39.5652C33.0682 39.5652 32.7324 39.901 32.7324 40.3152V49.0318C32.7324 56.2318 34.5658 58.0652 41.8658 58.0652H64.6991C71.8657 58.0652 73.7658 56.3319 73.8324 49.4319V40.3152C73.8324 39.901 73.4966 39.5652 73.0824 39.5652H33.4824ZM44.7324 52.1319H40.5658C39.5658 52.1319 38.7657 51.3318 38.7657 50.3318C38.7657 49.3318 39.5658 48.5319 40.5658 48.5319H44.7324C45.7324 48.5319 46.5324 49.3318 46.5324 50.3318C46.5324 51.3318 45.7324 52.1319 44.7324 52.1319ZM58.2325 52.1319H49.9324C48.9324 52.1319 48.1324 51.3318 48.1324 50.3318C48.1324 49.3318 48.9324 48.5319 49.9324 48.5319H58.2325C59.2325 48.5319 60.0324 49.3318 60.0324 50.3318C60.0658 51.3318 59.2325 52.1319 58.2325 52.1319Z" fill="#1098F7"/>
</svg>
