<svg width="455" height="316" viewBox="0 0 455 316" fill="none" xmlns="http://www.w3.org/2000/svg">
<g clip-path="url(#clip0_379_35479)">
<path d="M69.3863 240.556C69.6167 240.699 69.8729 240.795 70.1403 240.838C70.4077 240.881 70.681 240.872 70.9447 240.81C71.2083 240.747 71.4571 240.634 71.6769 240.475C71.8967 240.317 72.0831 240.117 72.2255 239.886C79.0794 228.794 86.8705 221.074 96.9781 215.495C99.5063 219.088 100.811 223.439 100.696 228.055C100.543 234.18 97.9713 240.17 93.2607 245.376C89.0557 250.023 84.2023 252.241 79.5067 254.385C73.583 257.09 67.9877 259.647 63.9822 267.066C63.5351 267.887 62.7575 268.377 61.8899 268.382C60.8968 268.381 60.0793 267.815 59.4574 266.685C58.0011 264.039 56.3221 255.98 56.0375 247.073C55.5786 232.764 58.7783 224.605 61.5438 220.278C65.1179 214.69 70.6554 210.643 76.7952 208.998C77.952 208.686 79.1306 208.461 80.321 208.325C85.7253 207.721 90.7474 209.171 94.2011 212.313C83.835 218.198 75.7929 226.26 68.7116 237.714C68.5689 237.945 68.4731 238.202 68.4298 238.47C68.3865 238.738 68.3965 239.011 68.4592 239.275C68.5218 239.539 68.636 239.789 68.7951 240.008C68.9542 240.228 69.1551 240.414 69.3863 240.556Z" fill="#F1C1DD"/>
<path d="M102.754 212.64C100.744 213.524 98.8233 214.472 96.9783 215.491C96.2749 214.491 95.4827 213.556 94.6112 212.698C94.4786 212.567 94.3414 212.438 94.2023 212.313C96.439 211.047 98.7391 209.896 101.093 208.865C101.342 208.749 101.612 208.684 101.886 208.673C102.161 208.663 102.434 208.708 102.691 208.804C102.948 208.901 103.183 209.048 103.382 209.237C103.582 209.426 103.741 209.652 103.852 209.904C103.962 210.155 104.022 210.426 104.026 210.7C104.031 210.975 103.981 211.247 103.878 211.502C103.776 211.757 103.624 211.989 103.431 212.184C103.238 212.379 103.008 212.534 102.755 212.639L102.754 212.64Z" fill="#F1C1DD"/>
</g>
<g clip-path="url(#clip1_379_35479)">
<path d="M274.678 227.516C274.471 227.644 274.24 227.73 273.999 227.769C273.758 227.808 273.512 227.8 273.275 227.744C273.037 227.688 272.813 227.585 272.615 227.443C272.417 227.3 272.249 227.12 272.121 226.912C265.948 216.921 258.93 209.968 249.826 204.943C247.549 208.179 246.374 212.098 246.477 216.256C246.614 221.773 248.931 227.168 253.174 231.857C256.962 236.043 261.333 238.04 265.563 239.971C270.898 242.408 275.938 244.711 279.546 251.393C279.949 252.133 280.649 252.575 281.43 252.578C282.325 252.578 283.061 252.068 283.621 251.05C284.933 248.667 286.445 241.408 286.702 233.385C287.115 220.497 284.233 213.148 281.742 209.25C278.523 204.218 273.535 200.572 268.005 199.09C266.963 198.809 265.901 198.607 264.829 198.485C259.961 197.94 255.438 199.246 252.327 202.076C261.664 207.377 268.908 214.639 275.286 224.956C275.415 225.164 275.501 225.395 275.54 225.636C275.579 225.878 275.57 226.124 275.513 226.362C275.457 226.6 275.354 226.824 275.211 227.022C275.067 227.22 274.887 227.388 274.678 227.516Z" fill="#F1C1DD"/>
<path d="M244.624 202.371C246.433 203.167 248.164 204.022 249.826 204.939C250.459 204.038 251.173 203.196 251.958 202.424C252.077 202.305 252.201 202.189 252.326 202.076C250.311 200.936 248.24 199.899 246.119 198.971C245.895 198.866 245.652 198.808 245.405 198.798C245.158 198.789 244.911 198.829 244.68 198.916C244.449 199.004 244.237 199.136 244.057 199.306C243.878 199.476 243.734 199.68 243.635 199.907C243.535 200.133 243.481 200.377 243.477 200.624C243.473 200.871 243.519 201.117 243.611 201.346C243.703 201.576 243.84 201.785 244.013 201.961C244.187 202.136 244.394 202.276 244.623 202.371L244.624 202.371Z" fill="#F1C1DD"/>
</g>
<g clip-path="url(#clip2_379_35479)">
<path d="M294.386 65.3973C294.457 65.631 294.48 65.8762 294.456 66.1189C294.431 66.3617 294.359 66.5972 294.243 66.8121C294.128 67.027 293.971 67.217 293.782 67.3713C293.593 67.5256 293.375 67.6411 293.142 67.7113C281.893 71.0883 273.36 76.0673 266.15 83.5606C268.687 86.5978 272.168 88.7471 276.211 89.7232C281.576 91.0185 287.387 90.1771 293.014 87.2923C298.037 84.7172 301.098 81.0115 304.058 77.4261C307.793 72.9031 311.322 68.6308 318.71 66.8755C319.529 66.6781 320.137 66.1158 320.343 65.3619C320.574 64.4977 320.272 63.6546 319.433 62.85C317.471 60.9661 310.851 57.6266 303.168 55.3027C290.826 51.5677 282.981 52.4493 278.572 53.8466C272.877 55.6537 268.065 59.5279 265.202 64.4862C264.661 65.4199 264.191 66.3929 263.795 67.397C262.009 71.9579 262.1 76.6654 264.029 80.4027C271.565 72.7557 280.455 67.6385 292.071 64.1477C292.305 64.0774 292.551 64.0539 292.794 64.0787C293.037 64.1035 293.273 64.176 293.488 64.292C293.703 64.4081 293.893 64.5655 294.047 64.7551C294.201 64.9448 294.317 65.163 294.386 65.3973Z" fill="#F1C1DD"/>
<path d="M262.319 87.9197C263.557 86.3778 264.83 84.9275 266.147 83.5598C265.44 82.7146 264.812 81.8074 264.269 80.8493C264.185 80.7033 264.105 80.5539 264.028 80.4036C262.405 82.0545 260.868 83.7873 259.422 85.5954C259.263 85.7849 259.144 86.0042 259.071 86.2405C258.998 86.4767 258.973 86.7252 258.997 86.9712C259.021 87.2173 259.095 87.4561 259.212 87.6735C259.33 87.8909 259.49 88.0826 259.683 88.2374C259.876 88.3922 260.098 88.507 260.335 88.5749C260.573 88.6429 260.822 88.6627 261.067 88.6332C261.313 88.6037 261.55 88.5255 261.765 88.4032C261.98 88.2808 262.168 88.1168 262.319 87.9207L262.319 87.9197Z" fill="#F1C1DD"/>
</g>
<g clip-path="url(#clip3_379_35479)">
<path d="M407.455 71.2729C407.462 71.4794 407.427 71.6852 407.354 71.8783C407.28 72.0715 407.17 72.2483 407.028 72.3987C406.887 72.5491 406.717 72.6701 406.528 72.7549C406.34 72.8396 406.137 72.8864 405.93 72.8926C395.99 73.1895 387.921 75.3917 380.382 79.94C381.791 82.9798 384.167 85.5004 387.26 87.1847C391.363 89.4196 396.3 90.0049 401.535 88.8788C406.207 87.8736 409.523 85.5136 412.729 83.2301C416.775 80.3494 420.597 77.6286 427.024 77.8121C427.737 77.8302 428.357 77.5035 428.691 76.9321C429.069 76.2759 429.007 75.5203 428.498 74.6784C427.306 72.7077 422.623 68.5258 416.849 64.9416C407.574 59.1824 400.965 58.1841 397.052 58.3607C392 58.5908 387.215 60.7047 383.787 64.1325C383.14 64.7775 382.542 65.4702 381.999 66.2047C379.538 69.5434 378.581 73.4133 379.34 76.8925C387.179 72.2899 395.57 70.053 405.836 69.7436C406.042 69.7374 406.248 69.7721 406.442 69.8456C406.635 69.9191 406.812 70.0301 406.963 70.1722C407.113 70.3142 407.234 70.4846 407.319 70.6735C407.403 70.8624 407.45 71.0661 407.455 71.2729Z" fill="#F1C1DD"/>
<path d="M376.294 82.666C377.644 81.6761 379.003 80.7689 380.379 79.9389C379.987 79.0929 379.672 78.2132 379.438 77.3106C379.401 77.173 379.369 77.0332 379.339 76.8935C377.65 77.888 376.013 78.9682 374.434 80.1301C374.262 80.2503 374.117 80.4035 374.005 80.5807C373.894 80.7579 373.819 80.9556 373.785 81.1622C373.751 81.3687 373.758 81.58 373.807 81.7837C373.856 81.9873 373.944 82.1792 374.068 82.348C374.192 82.5169 374.348 82.6593 374.528 82.767C374.707 82.8747 374.907 82.9454 375.114 82.9751C375.321 83.0048 375.532 82.9928 375.735 82.9398C375.937 82.8868 376.127 82.794 376.293 82.6666L376.294 82.666Z" fill="#F1C1DD"/>
</g>
<g clip-path="url(#clip4_379_35479)">
<path d="M100.674 65.241C100.62 65.4236 100.601 65.6153 100.62 65.8051C100.64 65.9949 100.696 66.1791 100.786 66.347C100.877 66.515 100.999 66.6636 101.147 66.7842C101.295 66.9048 101.465 66.9951 101.648 67.05C110.442 69.69 117.112 73.5824 122.749 79.4404C120.765 81.8148 118.044 83.4951 114.883 84.2582C110.69 85.2708 106.147 84.613 101.747 82.3578C97.8201 80.3446 95.4275 77.4476 93.1133 74.6447C90.1935 71.1087 87.4351 67.7688 81.659 66.3966C81.0186 66.2422 80.5436 65.8027 80.3826 65.2133C80.2022 64.5377 80.4379 63.8786 81.0935 63.2496C82.6277 61.7769 87.8032 59.1661 93.8092 57.3493C103.458 54.4294 109.591 55.1186 113.038 56.211C117.49 57.6238 121.252 60.6525 123.49 64.5287C123.913 65.2587 124.28 66.0193 124.589 66.8043C125.986 70.3699 125.915 74.05 124.407 76.9717C118.515 70.9935 111.566 66.9931 102.484 64.2641C102.301 64.2091 102.109 64.1908 101.919 64.2101C101.729 64.2295 101.545 64.2862 101.377 64.3769C101.209 64.4677 101.06 64.5907 100.939 64.739C100.819 64.8872 100.729 65.0578 100.674 65.241Z" fill="#F1C1DD"/>
<path d="M125.743 82.8481C124.776 81.6427 123.781 80.5089 122.751 79.4397C123.303 78.7789 123.795 78.0697 124.22 77.3207C124.285 77.2066 124.347 77.0898 124.407 76.9723C125.676 78.2629 126.878 79.6175 128.008 81.031C128.132 81.1792 128.226 81.3506 128.283 81.5353C128.34 81.72 128.36 81.9142 128.341 82.1066C128.322 82.299 128.264 82.4856 128.172 82.6556C128.08 82.8256 127.955 82.9755 127.804 83.0965C127.654 83.2175 127.48 83.3072 127.294 83.3603C127.109 83.4134 126.914 83.4289 126.722 83.4059C126.53 83.3828 126.345 83.3217 126.177 83.226C126.009 83.1304 125.861 83.0022 125.744 82.8489L125.743 82.8481Z" fill="#F1C1DD"/>
</g>
<g clip-path="url(#clip5_379_35479)">
<path d="M152.864 264.107C153.221 264.214 153.595 264.25 153.965 264.212C154.336 264.175 154.695 264.065 155.023 263.888C155.351 263.712 155.641 263.473 155.876 263.184C156.111 262.896 156.288 262.564 156.395 262.208C161.547 245.045 169.144 232.027 180.576 221.026C185.21 224.896 188.49 230.208 189.979 236.376C191.955 244.561 190.671 253.427 186.27 262.013C182.341 269.677 176.687 274.347 171.217 278.863C164.316 284.562 157.798 289.945 155.119 301.218C154.818 302.468 153.96 303.395 152.81 303.709C151.492 304.061 150.205 303.601 148.978 302.322C146.103 299.327 141.008 289.227 137.462 277.505C131.764 258.675 133.109 246.705 135.241 239.978C137.998 231.29 143.909 223.948 151.474 219.58C152.899 218.754 154.383 218.037 155.915 217.433C162.874 214.708 170.056 214.847 175.758 217.79C164.091 229.288 156.284 242.851 150.958 260.574C150.85 260.931 150.815 261.306 150.852 261.677C150.89 262.048 151.001 262.408 151.178 262.736C151.355 263.064 151.595 263.354 151.884 263.589C152.174 263.825 152.507 264 152.864 264.107Z" fill="#F1C1DD"/>
<path d="M187.227 215.182C184.874 217.07 182.662 219.012 180.575 221.021C179.286 219.943 177.901 218.984 176.44 218.155C176.217 218.028 175.989 217.906 175.76 217.789C178.278 215.313 180.922 212.967 183.681 210.761C183.97 210.519 184.304 210.336 184.665 210.225C185.025 210.114 185.404 210.076 185.78 210.113C186.155 210.15 186.52 210.261 186.851 210.441C187.183 210.621 187.476 210.865 187.712 211.159C187.948 211.453 188.123 211.792 188.227 212.154C188.33 212.517 188.361 212.897 188.316 213.271C188.271 213.646 188.151 214.008 187.965 214.336C187.778 214.663 187.528 214.951 187.229 215.181L187.227 215.182Z" fill="#F1C1DD"/>
</g>
<path d="M49.277 162.3C43.9949 157.145 34.2368 153.293 27.561 152.515C26.3996 152.324 25.2172 152.295 24.0479 152.43C22.3683 152.674 21.2941 151.73 21.2991 150.6C21.3042 149.469 21.7061 149.054 22.7853 148.867C25.7614 148.48 30.7506 149.094 35.805 150.717L36.821 151.06L37.1596 151.175L38.5143 151.633C38.6934 151.706 38.89 151.726 39.08 151.689C39.2699 151.652 39.4448 151.56 39.5832 151.424C39.7215 151.289 39.8173 151.116 39.8586 150.927C39.9 150.738 39.8851 150.541 39.8158 150.36C38.0349 146.013 35.392 141.896 30.4078 140.152C25.4235 138.408 18.3941 140.907 11.8059 143.904C8.89862 145.33 5.90744 146.577 2.84888 147.639L1.60375 147.973C1.44517 147.997 1.29619 148.064 1.1725 148.167C1.0488 148.269 0.954969 148.403 0.900882 148.554C0.846796 148.705 0.834455 148.868 0.865161 149.025C0.895868 149.183 0.968484 149.329 1.07536 149.449L1.76645 150.495C7.14805 158.703 14.5772 169.955 25.3339 170.255C26.8409 170.258 28.3417 170.063 29.798 169.675C34.4905 168.375 38.5197 165.352 41.0807 161.211C43.055 162.318 44.8936 163.651 46.5594 165.184C46.7958 165.435 47.0966 165.616 47.4289 165.708C47.7613 165.8 48.1125 165.799 48.4443 165.705C48.8913 165.593 49.2913 165.342 49.5868 164.989C49.864 164.577 49.9851 164.08 49.9283 163.587C49.8715 163.094 49.6405 162.638 49.277 162.3Z" fill="#F1C1DD"/>
<path d="M347.137 213.681C347.28 225.387 353.904 240.654 360.52 249.014C361.608 250.531 362.902 251.889 364.365 253.05C366.523 254.659 366.669 256.923 365.395 258.186C364.122 259.448 363.204 259.464 361.785 258.462C358.013 255.558 353.105 249.273 349.256 241.784L348.502 240.259L348.25 239.751L347.245 237.717C347.126 237.434 346.927 237.192 346.673 237.02C346.418 236.849 346.119 236.756 345.812 236.752C345.505 236.749 345.204 236.835 344.945 237.001C344.687 237.167 344.482 237.404 344.357 237.685C341.478 244.559 339.825 252.141 343.46 259.688C347.094 267.235 357.782 272.316 368.534 276.344C373.393 278.006 378.147 279.962 382.769 282.202L384.54 283.224C384.746 283.374 384.988 283.466 385.241 283.49C385.495 283.514 385.75 283.469 385.98 283.361C386.21 283.252 386.407 283.083 386.549 282.872C386.691 282.661 386.774 282.415 386.788 282.161L387.187 280.212C390.357 264.969 394.645 244.015 382.916 231.613C381.229 229.92 379.327 228.456 377.258 227.257C370.537 223.452 362.627 222.323 355.109 224.095C354.137 220.639 353.57 217.081 353.42 213.494C353.437 212.947 353.303 212.406 353.033 211.93C352.764 211.454 352.368 211.062 351.891 210.795C351.264 210.419 350.534 210.252 349.805 210.317C349.033 210.468 348.34 210.89 347.85 211.506C347.361 212.123 347.108 212.894 347.137 213.681Z" fill="#F1C1DD"/>
<path d="M421.285 178.392C415.461 179.573 409.313 179.55 403.524 177.998C393.792 175.391 386.907 168.458 386.907 168.458C385.001 167.947 380.658 175.018 377.354 174.133C374.158 173.277 373.356 170.017 373.816 168.3C374.866 164.381 383.215 163.344 383.798 161.166C383.798 161.166 382.991 158.259 384.196 153.761C387.407 141.779 399.322 135.811 411.08 135.167C419.567 134.7 435.357 142.116 441.982 138.562C444.591 137.205 446.097 135.706 449.294 136.562C453.591 137.714 452.044 149.125 451.184 152.334C447.666 165.463 438.181 175.052 421.285 178.392ZM393.576 161.375C403.946 152.746 414.77 150.71 427.892 155.343C428.912 155.705 430.033 155.168 430.395 154.148C430.757 153.129 430.22 152.008 429.2 151.646C414.824 146.575 402.564 148.81 391.07 158.369C390.238 159.059 390.122 160.297 390.812 161.129C391.503 161.961 392.741 162.078 393.576 161.375Z" fill="#F1C1DD"/>
<path d="M184.851 3.22758C186.161 2.28015 187.827 3.17347 187.815 4.77538C187.803 12.1159 191.494 18.8272 197.976 22.5696L206.155 27.2918C216.992 33.5487 220.708 47.4177 214.451 58.255C214.038 58.9707 213.561 59.6085 213.088 60.2624C209.263 51.8241 202.137 42.4208 188.784 34.7117C187.885 34.1923 186.724 34.5034 186.204 35.4031C185.685 36.3028 185.996 37.4639 186.895 37.9834C212.598 52.823 214.401 74.8704 213.396 82.1831C213.109 84.2392 211.213 85.6804 209.151 85.4032C207.073 85.1304 205.638 83.2248 205.899 81.1671C205.958 80.7105 206.59 75.0362 203.896 67.6602C197.992 70.236 189.221 70.8837 181.457 65.2291C166.079 54.7962 163.092 33.8783 173.269 16.2523C176.232 11.1199 180.406 6.44099 184.851 3.22758Z" fill="#F1C1DD"/>
<path d="M101.159 212.658L107.153 172.333L108.243 174.876L119.959 92.4116H119.323L57.5654 166.339H118.778L121.23 165.613H150.747L147.387 184.594H42.6709L45.9404 166.43L127.225 80.4233H147.296L123.955 212.658H101.159Z" fill="#CA4592"/>
<path d="M163.28 160.164L168.275 131.918C171.303 114.299 178.145 100.979 188.801 91.9575C199.518 82.936 212.989 78.4253 229.216 78.4253C245.503 78.4253 257.37 82.8755 264.817 91.7759C272.325 100.616 274.505 113.997 271.356 131.918L266.361 160.254C263.213 178.6 256.159 192.253 245.2 201.214C234.302 210.175 220.951 214.656 205.148 214.656C188.74 214.595 176.873 210.024 169.547 200.942C162.221 191.799 160.132 178.207 163.28 160.164ZM187.348 163.433C185.41 177.238 186.167 187.955 189.618 195.583C193.069 203.152 199.275 206.936 208.236 206.936C217.258 206.936 224.493 203.152 229.942 195.583C235.452 187.955 239.206 177.268 241.204 163.524L247.198 128.921C249.136 115.419 248.318 104.975 244.746 97.5884C241.174 90.2017 234.938 86.5083 226.037 86.5083C217.197 86.5083 210.022 90.2017 204.513 97.5884C199.063 104.975 195.37 115.419 193.433 128.921L187.348 163.433Z" fill="#CA4592"/>
<path d="M331.116 212.658L337.11 172.333L338.2 174.876L349.916 92.4116H349.28L287.522 166.339H348.735L351.188 165.613H380.704L377.344 184.594H272.628L275.897 166.43L357.182 80.4233H377.253L353.912 212.658H331.116Z" fill="#CA4592"/>
<defs>
<clipPath id="clip0_379_35479">
<rect width="66" height="66" fill="white" transform="matrix(0.965926 -0.258819 -0.258819 -0.965926 57.3699 276.072)"/>
</clipPath>
<clipPath id="clip1_379_35479">
<rect width="59.4476" height="59.4476" fill="white" transform="translate(285.502 259.505) rotate(-165)"/>
</clipPath>
<clipPath id="clip2_379_35479">
<rect width="59.4476" height="59.4476" fill="white" transform="translate(328.087 63.2222) rotate(120)"/>
</clipPath>
<clipPath id="clip3_379_35479">
<rect width="50.3336" height="50.3336" fill="white" transform="translate(435.494 76.8794) rotate(135)"/>
</clipPath>
<clipPath id="clip4_379_35479">
<rect width="46.4741" height="46.4741" fill="white" transform="matrix(0.5 0.866025 0.866025 -0.5 74.3281 63.5405)"/>
</clipPath>
<clipPath id="clip5_379_35479">
<rect width="90.7007" height="90.7007" fill="white" transform="matrix(0.866025 -0.5 -0.5 -0.866025 149.545 315.525)"/>
</clipPath>
</defs>
</svg>
