<svg width="79" height="81" viewBox="0 0 79 81" fill="none" xmlns="http://www.w3.org/2000/svg">
<path d="M70.7323 16.1062C72.6073 18.5629 74.1946 21.2319 75.462 24.0596L39.5084 50.9197L24.4824 41.3737V29.8895L39.5084 39.4355L70.7323 16.1062Z" fill="#21A038"/>
<path d="M9.14884 40.5634C9.14884 40.048 9.16124 39.5361 9.18604 39.0272L0.0798672 38.575C0.0488728 39.2346 0.0302844 39.9006 0.0302844 40.5727C0.02641 45.8243 1.04565 51.0248 3.02957 55.876C5.01347 60.7274 7.92298 65.134 11.5912 68.8431L18.0504 62.3001C15.2268 59.45 12.9867 56.0623 11.4591 52.332C9.93147 48.6017 9.14634 44.6021 9.14884 40.5634Z" fill="url(#paint0_linear_379_32339)"/>
<path d="M39.4995 9.80386C40.0077 9.80386 40.5128 9.82272 41.0149 9.84784L41.4705 0.615993C40.8177 0.584581 40.1606 0.568877 39.4995 0.568877C34.3151 0.56247 29.1809 1.59394 24.3912 3.60406C19.6015 5.61418 15.2508 8.56336 11.5889 12.2823L18.0481 18.8284C20.8605 15.9658 24.2035 13.6948 27.8849 12.1461C31.5663 10.5973 35.5133 9.80132 39.4995 9.80386Z" fill="url(#paint1_linear_379_32339)"/>
<path d="M39.5006 71.3235C38.9924 71.3235 38.4871 71.3235 37.982 71.2827L37.5264 80.5114C38.1813 80.5449 38.8395 80.5618 39.5006 80.5618C44.6827 80.5672 49.8145 79.535 54.6016 77.5244C59.3888 75.5137 63.7367 72.564 67.3958 68.8452L60.949 62.3022C58.1361 65.1633 54.7934 67.433 51.1127 68.9812C47.4321 70.5294 43.4858 71.3255 39.5006 71.3235Z" fill="url(#paint2_linear_379_32339)"/>
<path d="M56.6127 15.1709L64.2869 9.43827C57.2726 3.68198 48.5169 0.548474 39.4912 0.564514V9.80264C45.603 9.79496 51.5729 11.6668 56.6127 15.1709Z" fill="url(#paint3_linear_379_32339)"/>
<path d="M78.9688 40.5641C78.9737 38.1609 78.7663 35.7618 78.3488 33.396L69.8534 39.7411C69.8534 40.0145 69.8534 40.2877 69.8534 40.5641C69.8556 44.8621 68.9665 49.1126 67.2442 53.0401C65.5216 56.9675 63.0039 60.4843 59.8545 63.3625L65.9822 70.2262C70.0767 66.4799 73.3486 61.9036 75.5858 56.7939C77.8232 51.6839 78.9757 46.1545 78.9688 40.5641Z" fill="#21A038"/>
<path d="M39.5025 71.3263C35.2612 71.3277 31.0669 70.4265 27.1911 68.6809C23.3154 66.9353 19.8446 64.3841 17.0035 61.1929L10.2344 67.3998C13.9303 71.5501 18.4457 74.8665 23.4878 77.1345C28.5299 79.4023 33.986 80.5709 39.5025 80.5643V71.3263Z" fill="url(#paint4_linear_379_32339)"/>
<path d="M19.1477 17.7648L13.0232 10.9014C8.92747 14.6468 5.65432 19.2229 3.41598 24.3328C1.17767 29.4427 0.024171 34.9724 0.0302977 40.5632H9.14886C9.14698 36.2655 10.0361 32.0149 11.7585 28.0875C13.481 24.1602 15.9984 20.6433 19.1477 17.7648Z" fill="url(#paint5_linear_379_32339)"/>
<defs>
<linearGradient id="paint0_linear_379_32339" x1="13.4354" y1="67.6904" x2="3.23338" y2="38.5901" gradientUnits="userSpaceOnUse">
<stop offset="0.14" stop-color="#F1E813"/>
<stop offset="0.3" stop-color="#E6E418"/>
<stop offset="0.58" stop-color="#C9DA26"/>
<stop offset="0.89" stop-color="#A2CC39"/>
</linearGradient>
<linearGradient id="paint1_linear_379_32339" x1="14.1924" y1="13.9157" x2="39.9387" y2="4.23436" gradientUnits="userSpaceOnUse">
<stop offset="0.06" stop-color="#0FA7DF"/>
<stop offset="0.54" stop-color="#0098F8"/>
<stop offset="0.92" stop-color="#0290EA"/>
</linearGradient>
<linearGradient id="paint2_linear_379_32339" x1="36.9252" y1="74.9861" x2="65.9792" y2="68.5097" gradientUnits="userSpaceOnUse">
<stop offset="0.12" stop-color="#A2CC39"/>
<stop offset="0.28" stop-color="#86C239"/>
<stop offset="0.87" stop-color="#219F38"/>
</linearGradient>
<linearGradient id="paint3_linear_379_32339" x1="37.5945" y1="3.65855" x2="62.4594" y2="11.2299" gradientUnits="userSpaceOnUse">
<stop offset="0.06" stop-color="#0290EA"/>
<stop offset="0.79" stop-color="#0C89CA"/>
</linearGradient>
<linearGradient id="paint4_linear_379_32339" x1="12.5218" y1="66.2752" x2="39.6118" y2="76.2653" gradientUnits="userSpaceOnUse">
<stop offset="0.13" stop-color="#F1E813"/>
<stop offset="0.3" stop-color="#EAE616"/>
<stop offset="0.53" stop-color="#D8DF1F"/>
<stop offset="0.8" stop-color="#BAD52D"/>
<stop offset="0.98" stop-color="#A2CC39"/>
</linearGradient>
<linearGradient id="paint5_linear_379_32339" x1="3.42728" y1="41.6814" x2="14.521" y2="13.2058" gradientUnits="userSpaceOnUse">
<stop offset="0.07" stop-color="#A2CC39"/>
<stop offset="0.26" stop-color="#81C45E"/>
<stop offset="0.92" stop-color="#0FA7DF"/>
</linearGradient>
</defs>
</svg>
