<svg width="81" height="81" viewBox="0 0 81 81" fill="none" xmlns="http://www.w3.org/2000/svg">
<path opacity="0.4" d="M73.8327 40.5644V57.231C73.8327 67.231 67.166 73.8977 57.166 73.8977H23.8327C13.8327 73.8977 7.16602 67.231 7.16602 57.231V40.5644C7.16602 31.4977 12.6327 25.1644 21.1327 24.0977C21.9993 23.9644 22.8993 23.8977 23.8327 23.8977H57.166C58.0327 23.8977 58.866 23.931 59.666 24.0643C68.266 25.0643 73.8327 31.431 73.8327 40.5644Z" fill="#58A222"/>
<path d="M59.6681 24.0645C58.8681 23.9312 58.0348 23.8979 57.1681 23.8979H23.8348C22.9014 23.8979 22.0014 23.9646 21.1348 24.0979C21.6014 23.1646 22.2681 22.2979 23.0681 21.4979L33.9014 10.6312C38.4681 6.09787 45.8681 6.09787 50.4348 10.6312L56.2681 16.5313C58.4014 18.6313 59.5348 21.2979 59.6681 24.0645Z" fill="#58A222"/>
<path d="M73.8327 42.2312H63.8327C60.166 42.2312 57.166 45.2312 57.166 48.8979C57.166 52.5645 60.166 55.5645 63.8327 55.5645H73.8327" fill="#58A222"/>
</svg>
