<svg width="115" height="15" viewBox="0 0 115 15" fill="none" xmlns="http://www.w3.org/2000/svg">
<g clip-path="url(#clip0_379_32354)">
<path d="M1.14698 0.972647C0.700262 1.1779 0.301837 1.60047 0.132808 2.04719C0.048294 2.27658 0 4.42566 0 8.36162V14.3259H2.7769V10.5831H6.47139L7.43727 12.4545L8.39108 14.3259H9.99685C10.8661 14.3259 11.5906 14.2897 11.5906 14.2535C11.5906 14.2052 11.0955 13.2152 10.4798 12.0561L9.3811 9.93118L9.67087 9.75007C11.3008 8.67553 12.0252 6.56267 11.5906 4.14797C11.3129 2.67501 10.6005 1.63669 9.50184 1.15375C8.88609 0.876059 8.77743 0.863985 5.1916 0.839839C2.29396 0.815692 1.43675 0.839839 1.14698 0.972647ZM8.14961 3.70126C8.34278 3.7737 8.53596 3.99102 8.64462 4.26871C8.87402 4.81202 8.89816 6.20047 8.69291 6.61097C8.17375 7.61307 7.53386 7.80624 4.80525 7.80624H2.7769V3.58052H5.30026C6.68871 3.58052 7.9685 3.62881 8.14961 3.70126ZM15.6955 0.912279C14.5003 1.27448 13.643 2.1317 13.2808 3.30283C12.9911 4.24456 12.6772 6.46609 12.6772 7.54063C12.6772 8.57895 12.9669 10.6918 13.2205 11.549C13.6672 13.0341 14.4278 13.7947 15.8283 14.1569C16.432 14.3139 17.0719 14.338 19.1244 14.3018C21.4787 14.2656 21.7202 14.2293 22.3118 13.9758C24.0142 13.2152 24.7507 11.2834 24.7507 7.56477C24.7386 3.65296 23.978 1.7212 22.179 1.05716C21.5391 0.827765 21.2614 0.803618 18.7381 0.815692C17.2289 0.815692 15.8646 0.863985 15.6955 0.912279ZM21.3097 3.85821C22.1186 4.96897 22.1066 10.4383 21.2856 11.2472C21.0441 11.5007 16.3958 11.5128 16.1906 11.2713C15.6231 10.5831 15.4178 6.61097 15.8525 4.75165C16.0336 4.01517 16.1302 3.78577 16.3354 3.70126C16.4803 3.64089 17.6273 3.60467 18.8709 3.61674C20.9113 3.64089 21.1648 3.66504 21.3097 3.85821ZM27.3585 1.06923C27.0929 1.22619 26.7669 1.5401 26.6341 1.7695C26.3927 2.18 26.3806 2.39732 26.3444 7.22672C26.3202 10.5952 26.3564 12.4183 26.4409 12.7564C26.6462 13.5049 27.1774 14.0482 27.9018 14.1931C28.6504 14.3621 33.9748 14.3621 34.9286 14.2052C36.7879 13.9034 37.7417 12.8167 37.8745 10.8246C37.9591 9.70178 37.778 8.86871 37.3071 8.12015L36.957 7.57685L37.4037 6.70756C37.8383 5.87448 37.8504 5.78997 37.8504 4.61884C37.8504 3.61674 37.79 3.29076 37.5727 2.79574C37.2226 2.03511 36.8 1.5884 36.0394 1.18997L35.4357 0.863985L31.6325 0.827765C27.8656 0.803618 27.8294 0.803618 27.3585 1.06923ZM34.832 3.7254C35.001 3.89443 35.1097 4.70336 35.001 5.07763C34.9407 5.29496 34.7475 5.59679 34.5785 5.76582C34.2766 6.05559 34.2283 6.05559 31.7412 6.09181L29.2178 6.12803V3.56845L31.9827 3.60467C33.5039 3.62881 34.7837 3.67711 34.832 3.7254ZM34.3008 9.11018C34.7837 9.30336 35.0493 9.82252 35.0373 10.5107C35.0252 10.9454 34.9648 11.1627 34.8199 11.2713C34.663 11.3921 33.9024 11.4283 31.9102 11.4283H29.2178V8.86871L31.6084 8.917C32.9123 8.95322 34.1318 9.03774 34.3008 9.11018ZM41.9192 1.05716C40.748 1.51595 40.1564 2.33695 39.6976 4.14797C39.4682 5.06556 39.432 5.5485 39.432 7.56477C39.432 9.76215 39.4562 10.0036 39.758 11.1265C40.1323 12.4908 40.4824 13.0824 41.1827 13.6015C42.052 14.2173 42.3176 14.2656 45.3963 14.2656C48.4751 14.2656 48.7407 14.2173 49.61 13.6015C50.3102 13.0824 50.6604 12.4908 51.0346 11.1265C51.3365 10.0036 51.3606 9.76215 51.3606 7.56477C51.3606 5.5485 51.3244 5.06556 51.095 4.14797C50.6362 2.3128 50.0446 1.50388 48.8373 1.05716C48.2215 0.827765 47.9197 0.803618 45.3601 0.815692C42.8367 0.815692 42.4987 0.839839 41.9192 1.05716ZM47.7386 3.70126C48.0646 3.82199 48.2094 4.19627 48.4388 5.56057C48.7286 7.23879 48.4751 10.402 47.9921 11.1385C47.811 11.4283 47.799 11.4283 45.3963 11.4283C42.5711 11.4283 42.7402 11.5128 42.4262 9.90703C41.9795 7.68551 42.3417 3.97895 43.0178 3.70126C43.3801 3.55637 47.3522 3.55637 47.7386 3.70126Z" fill="#276EB8"/>
<path d="M53.6184 1.17754L53.2441 1.55181V13.5046L53.5943 13.8547C53.9082 14.1565 54.041 14.2048 54.6567 14.2048C55.2483 14.2048 55.4174 14.1565 55.6347 13.9271C56.0573 13.4804 56.1418 12.9613 56.1418 10.8605V8.8925H57.9166L58.81 9.6652C60.5969 11.1985 61.2126 12.0195 61.2126 12.8405C61.2126 13.2993 61.273 13.4442 61.6231 13.7943C61.9853 14.1565 62.1061 14.2048 62.6494 14.2048C63.1565 14.2048 63.3255 14.1445 63.6515 13.8547C64.0378 13.5166 64.0499 13.4684 64.0378 12.587C64.0258 11.8264 63.9654 11.5487 63.6515 10.9088C63.2289 10.0636 61.9974 8.55444 61.2247 7.93869L60.7176 7.54027L61.5024 6.82793C62.4441 5.95864 63.3134 4.8358 63.7239 3.95444C63.9533 3.44735 64.0258 3.08515 64.0378 2.40903C64.0499 1.53974 64.0378 1.49145 63.6515 1.15339C63.3014 0.839478 63.1685 0.803258 62.4924 0.803258C61.7922 0.803258 61.6835 0.839478 61.4662 1.11717C61.2972 1.33449 61.2126 1.61218 61.2126 1.97439C61.2126 2.26415 61.1402 2.67465 61.0436 2.89197C60.8384 3.39906 59.9208 4.40116 58.81 5.35496L57.9166 6.11559H56.1418V4.14762C56.1418 3.07307 56.0814 1.98646 56.021 1.74499C55.8399 1.09302 55.4053 0.803258 54.6205 0.803258C54.0772 0.803258 53.9323 0.851551 53.6184 1.17754ZM68.988 0.972286C67.3581 1.49145 66.4646 2.6505 65.8368 5.01691C65.547 6.07937 65.5229 6.44158 65.4746 9.50825C65.4021 13.1303 65.4504 13.5287 66.0058 13.9634C66.4042 14.2773 67.4305 14.2893 67.8048 13.9875C68.2394 13.6374 68.336 13.2993 68.336 12.0437V10.8243H74.6142V12.1644C74.6142 13.4804 74.6142 13.5046 74.9643 13.8547C75.2783 14.1565 75.4111 14.2048 76.0027 14.2048C76.6184 14.2048 76.7271 14.1686 77.0531 13.8185L77.4032 13.4321L77.367 9.56861C77.3187 5.99486 77.2945 5.62058 77.0531 4.81166C76.4735 2.90405 75.6284 1.70877 74.4935 1.17754C73.8657 0.887772 73.6966 0.863625 71.6562 0.839478C70.1108 0.815331 69.3381 0.851551 68.988 0.972286ZM73.1533 3.71297C73.8174 3.94237 74.3848 5.40326 74.5418 7.22636L74.6021 8.04735H68.2998L68.3843 7.08147C68.5292 5.37911 69.1932 3.78541 69.809 3.66468C70.4006 3.55601 72.7911 3.59223 73.1533 3.71297ZM81.1943 0.972286C80.0111 1.34656 79.347 1.92609 78.9365 2.97649C78.7313 3.50772 78.6709 3.89407 78.6709 4.84788C78.6709 6.77964 79.2504 7.87832 80.6147 8.54237C81.158 8.80798 81.3754 8.83213 83.7538 8.8925C86.2168 8.95287 86.3255 8.96494 86.5911 9.23056C86.9412 9.58069 86.9775 10.6069 86.6515 11.1019L86.4462 11.4279H83.1985C80.1318 11.4279 79.9386 11.44 79.6489 11.6694C78.9727 12.2006 78.9486 13.3597 79.5885 13.903L79.9507 14.2048H83.4641C85.42 14.2048 87.1827 14.1445 87.4242 14.0841C88.0882 13.903 88.8006 13.2027 89.2473 12.2972C89.6216 11.5366 89.6457 11.4279 89.6457 10.1602C89.6457 8.97701 89.6095 8.75969 89.3318 8.16809C88.9334 7.32294 88.3901 6.69512 87.7985 6.40536C87.4121 6.21218 86.9654 6.16389 84.599 6.11559C81.3995 6.04315 81.4961 6.09145 81.4961 4.84788C81.4961 3.59223 81.315 3.6526 85.1664 3.58016L88.4987 3.51979L88.8247 3.19381C89.1145 2.90405 89.1507 2.75916 89.199 1.84158L89.2594 0.803258L85.4683 0.815331C82.7638 0.815331 81.5444 0.863625 81.1943 0.972286ZM93.147 0.972286C92.8814 1.0568 92.5071 1.21376 92.3019 1.31034C90.7444 2.13134 90.0924 4.8841 90.9859 6.84C91.3601 7.661 91.7706 8.09565 92.5434 8.50615C93.1229 8.82006 93.2195 8.83213 95.5617 8.86835C96.8898 8.88042 98.1213 8.96494 98.3024 9.02531C98.725 9.19433 98.9302 9.81008 98.8216 10.5345C98.6888 11.4521 98.7853 11.4279 95.1271 11.4279H91.8552L91.505 11.7781C91.2032 12.092 91.1549 12.2248 91.1549 12.8164C91.1549 13.408 91.2032 13.5408 91.505 13.8547L91.8552 14.2048H95.5014C99.558 14.2048 99.6546 14.1928 100.5 13.3838C101.236 12.6715 101.574 11.8264 101.635 10.4379C101.707 8.83213 101.405 7.8904 100.512 7.00903C100.113 6.61061 99.715 6.33292 99.4132 6.2484C99.1475 6.17596 97.9402 6.11559 96.6966 6.11559C95.4531 6.11559 94.2819 6.07937 94.0767 6.04315C93.642 5.95864 93.4489 5.58436 93.4489 4.84788C93.4489 4.11139 93.642 3.73712 94.0767 3.6526C94.2819 3.61638 95.7428 3.58016 97.3365 3.58016C101.091 3.58016 101.176 3.53187 101.176 1.70877V0.803258L97.409 0.815331C94.7166 0.815331 93.4851 0.863625 93.147 0.972286ZM106.38 1.04473C106.029 1.16546 105.546 1.41901 105.317 1.60011C104.351 2.33659 103.482 4.26835 103.24 6.23633C103.059 7.61271 103.071 12.9733 103.24 13.4684C103.409 13.9392 103.892 14.2048 104.605 14.2048C105.039 14.2048 105.233 14.1324 105.546 13.8547L105.945 13.5046L105.981 12.1644L106.029 10.8243H112.139L112.187 12.1644L112.223 13.5046L112.622 13.8547C112.935 14.1445 113.117 14.2048 113.612 14.2048C114.107 14.2048 114.288 14.1445 114.602 13.8547L115 13.5046L114.988 9.7135C114.976 6.2484 114.964 5.86205 114.722 4.99276C114.179 3.00063 113.37 1.79328 112.199 1.21376C111.511 0.875698 111.45 0.863625 109.265 0.839478C107.297 0.803258 106.959 0.827405 106.38 1.04473ZM111.209 4.0631C111.692 4.63056 112.054 5.8379 112.127 7.04525L112.199 8.04735H106.005V7.31087C106.005 5.77754 106.681 3.99066 107.358 3.7009C107.514 3.64053 108.36 3.60431 109.253 3.61638L110.859 3.64053L111.209 4.0631Z" fill="#D61E2F"/>
</g>
<defs>
<clipPath id="clip0_379_32354">
<rect width="115" height="13.524" fill="white" transform="translate(0 0.80249)"/>
</clipPath>
</defs>
</svg>
