<svg width="512" height="512" viewBox="0 0 512 512" fill="none" xmlns="http://www.w3.org/2000/svg">
<rect width="512" height="512" rx="24" fill="#FFFEFE"/>
<path d="M262.373 407.287C262.706 414.032 258.977 419.681 254.649 420.094C249.922 420.512 245.428 414.679 245.761 407.287C245.761 358.818 245.761 310.39 245.761 261.922C245.461 254.57 249.955 248.734 254.649 249.189C258.977 249.606 262.706 255.214 262.373 261.922C262.373 310.39 262.373 358.859 262.373 407.287Z" fill="#CA4592"/>
<path d="M185.25 365.686C184.518 378.914 191.477 391.137 202.8 396.567C216.886 403.364 230.507 396.102 231.839 395.37C231.906 394.102 232.372 377.813 219.018 368.018C209.294 360.923 196.173 360.024 185.25 365.686Z" fill="#CA4592"/>
<path d="M319.988 365.686C320.72 378.914 313.76 391.137 302.438 396.567C288.351 403.364 274.731 396.102 273.399 395.37C273.332 394.102 272.866 377.813 286.22 368.018C295.944 360.923 309.031 360.024 319.988 365.686Z" fill="#CA4592"/>
<path d="M369.75 257.271C366.557 243.593 355.209 231.802 350.911 227.366C342.685 218.79 334.24 213.541 328.329 210.436C334.312 208.477 344.781 204.226 354.512 194.763C358.146 191.214 372.14 176.798 373.792 157.724C376.288 128.966 350.436 92.8508 314.666 92.7031C288.702 92.592 264.354 111.444 256.274 139.205C255.319 135.582 247.093 106.01 220.027 95.5122C190.905 84.2382 152.712 99.9112 140.886 133.254C126.968 172.51 168.173 205.15 177.611 212.321C160.167 222.967 140.446 240.71 142.099 267.251C144.229 301.629 173.644 327.726 207.798 325.545C230.934 324.067 245.367 307.432 254.071 291.056C267.218 317.634 295.496 332.051 321.937 326.69C356.201 319.741 375.518 282 369.75 257.271Z" fill="#CA4592"/>
<path d="M298.312 184.517C288.61 174.98 272.919 174.98 263.254 184.517L256.016 191.633L248.776 184.517C239.074 174.98 223.383 174.98 213.718 184.517C204.016 194.055 204.016 209.478 213.718 218.978L220.958 226.095C232.441 234.924 243.925 243.754 255.409 252.583C267.31 243.754 279.21 234.924 291.112 226.095L298.35 218.978C308.015 209.478 308.015 194.055 298.312 184.517Z" fill="#F1C1DD"/>
</svg>
