<svg xmlns="http://www.w3.org/2000/svg" xmlns:xlink="http://www.w3.org/1999/xlink"><symbol fill="none" viewBox="0 0 10 7" id="icon-arrow-accordion" xmlns="http://www.w3.org/2000/svg"><path d="m9 1.364-4 4-4-4" stroke="#CA4592" stroke-width="1.5" stroke-linecap="round" stroke-linejoin="round"/></symbol><symbol fill="none" viewBox="0 0 24 24" id="icon-arrow-menu" xmlns="http://www.w3.org/2000/svg"><path d="m8.25 4.5 7.5 7.5-7.5 7.5" stroke="#CA4592" stroke-width="2.25" stroke-linecap="round" stroke-linejoin="round"/></symbol><symbol fill="none" viewBox="0 0 12 12" id="icon-arrow-return" xmlns="http://www.w3.org/2000/svg"><path d="M7.875 2.25 4.125 6l3.75 3.75" stroke="#CA4592" stroke-width="1.5" stroke-linecap="round" stroke-linejoin="round"/></symbol><symbol viewBox="0 0 36 36" id="icon-arrow-slider" xmlns="http://www.w3.org/2000/svg"><path fill-rule="evenodd" clip-rule="evenodd" d="M11.58 5.955c.439-.44 1.151-.44 1.59 0l11.25 11.25c.44.439.44 1.151 0 1.59l-11.25 11.25a1.125 1.125 0 0 1-1.59-1.59L22.034 18 11.58 7.546a1.125 1.125 0 0 1 0-1.591Z"/></symbol><symbol viewBox="0 0 16 16" id="icon-backspace" xmlns="http://www.w3.org/2000/svg"><path d="M11.334 14h-4.48c-1.08 0-2.114-.46-2.834-1.253L1.667 10.16a3.189 3.189 0 0 1 0-4.313L4.02 3.26C4.74 2.46 5.774 2 6.854 2h4.48a3.838 3.838 0 0 1 3.833 3.833v4.334A3.838 3.838 0 0 1 11.334 14ZM6.854 3c-.794 0-1.56.34-2.094.927L2.4 6.52a2.2 2.2 0 0 0 0 2.967l2.354 2.586c.533.587 1.3.927 2.093.927h4.487a2.84 2.84 0 0 0 2.833-2.833V5.833A2.84 2.84 0 0 0 11.334 3h-4.48Z"/><path d="M10.667 10.147a.495.495 0 0 1-.354-.147L7.02 6.7a.503.503 0 0 1 0-.707.503.503 0 0 1 .707 0l3.293 3.3a.503.503 0 0 1 0 .707c-.1.1-.227.147-.353.147Z"/><path d="M7.373 10.147A.494.494 0 0 1 7.02 10a.503.503 0 0 1 0-.707L10.313 6a.503.503 0 0 1 .707 0 .503.503 0 0 1 0 .707L7.727 10c-.1.1-.227.147-.354.147Z"/></symbol><symbol fill="none" viewBox="0 0 64 65" id="icon-basket" xmlns="http://www.w3.org/2000/svg"><path d="M13.84 17.077c-.507 0-1.04-.213-1.413-.587a2.012 2.012 0 0 1 0-2.826l9.68-9.68a2.012 2.012 0 0 1 2.826 0 2.012 2.012 0 0 1 0 2.826l-9.68 9.68c-.4.374-.906.587-1.413.587ZM50.16 17.077a1.978 1.978 0 0 1-1.413-.587l-9.68-9.68a2.012 2.012 0 0 1 0-2.826 2.012 2.012 0 0 1 2.827 0l9.68 9.68a2.012 2.012 0 0 1 0 2.827 2.046 2.046 0 0 1-1.413.586Z" fill="#CA4592"/><path d="M53.893 28.33H10.666c-1.866.027-4 .027-5.546-1.52-1.227-1.2-1.787-3.066-1.787-5.813 0-7.333 5.36-7.333 7.92-7.333h41.493c2.56 0 7.92 0 7.92 7.333 0 2.773-.56 4.613-1.786 5.813-1.387 1.387-3.254 1.52-4.987 1.52Zm-42.64-4H53.36c1.2.027 2.32.027 2.693-.346.187-.187.587-.827.587-2.987 0-3.013-.747-3.333-3.92-3.333H11.253c-3.173 0-3.92.32-3.92 3.333 0 2.16.427 2.8.587 2.987.373.346 1.52.346 2.693.346h.64ZM26.026 48.865c-1.093 0-2-.907-2-2v-9.467c0-1.093.907-2 2-2 1.094 0 2 .907 2 2v9.467c0 1.12-.906 2-2 2ZM38.294 48.865c-1.093 0-2-.907-2-2v-9.467c0-1.093.907-2 2-2s2 .907 2 2v9.467c0 1.12-.907 2-2 2Z" fill="#CA4592"/><path d="M39.706 60.73h-16.08c-9.546 0-11.68-5.68-12.506-10.613L7.36 27.05c-.187-1.093.56-2.107 1.653-2.293 1.093-.187 2.107.56 2.293 1.653l3.76 23.04c.774 4.72 2.374 7.28 8.56 7.28h16.08c6.854 0 7.627-2.4 8.507-7.04l4.48-23.333c.213-1.094 1.253-1.814 2.347-1.574a1.984 1.984 0 0 1 1.573 2.347l-4.48 23.333c-1.04 5.414-2.773 10.267-12.427 10.267Z" fill="#CA4592"/></symbol><symbol fill="none" viewBox="0 0 16 17" id="icon-bin" xmlns="http://www.w3.org/2000/svg"><path d="M14 4.55h-.053C10.42 4.198 6.9 4.065 3.414 4.418l-1.36.134a.503.503 0 0 1-.107-1l1.36-.134c3.547-.36 7.14-.22 10.74.134a.5.5 0 0 1 .447.546.494.494 0 0 1-.494.454Z" fill="#BA1A1A"/><path d="M5.667 3.877c-.027 0-.054 0-.087-.006a.502.502 0 0 1-.407-.574l.147-.873c.107-.64.253-1.527 1.807-1.527h1.746c1.56 0 1.707.92 1.807 1.534l.146.866a.495.495 0 0 1-.406.574.495.495 0 0 1-.573-.407L9.7 2.597c-.093-.58-.113-.693-.82-.693H7.133c-.706 0-.72.093-.82.687l-.153.866a.5.5 0 0 1-.493.42ZM10.14 15.23H5.86c-2.327 0-2.42-1.286-2.494-2.326l-.433-6.713a.505.505 0 0 1 .467-.533.505.505 0 0 1 .533.466l.433 6.714c.074 1.013.1 1.393 1.494 1.393h4.28c1.4 0 1.426-.38 1.493-1.393l.433-6.714a.51.51 0 0 1 .534-.466.5.5 0 0 1 .466.533l-.433 6.713c-.073 1.04-.167 2.327-2.493 2.327Z" fill="#BA1A1A"/><path d="M9.107 11.564h-2.22a.504.504 0 0 1-.5-.5c0-.273.226-.5.5-.5h2.22c.273 0 .5.227.5.5s-.227.5-.5.5ZM9.667 8.897H6.334a.504.504 0 0 1-.5-.5c0-.273.227-.5.5-.5h3.333c.274 0 .5.227.5.5 0 .274-.226.5-.5.5Z" fill="#BA1A1A"/></symbol><symbol fill="none" viewBox="0 0 16 16" id="icon-car" xmlns="http://www.w3.org/2000/svg"><path d="m15.01 10.87-.062.127a.56.56 0 0 1-.5.309h-.117c-.148 0-.26-.132-.26-.28a1.957 1.957 0 0 0-3.915 0c0 .148-.113.28-.26.28l-3.7.015c-.148 0-.26-.13-.26-.278a1.957 1.957 0 0 0-3.915 0c0 .148-.113.28-.26.28h-.626a.157.157 0 0 1-.15-.11l-.163-.51c-.027-.086.004-.177.035-.27a.654.654 0 0 0 .046-.202V4.678c0-.309.25-.56.559-.56h6.341l.138.022c.786.118 1.673.362 2.365.752l2.444 2.695 1.318.724c.215.044.412.709.567.864l.553.552v.393c0 .26-.06.518-.177.75Z" fill="#6F797B"/><path d="M12.952 11.043a.839.839 0 1 1-1.678 0 .839.839 0 0 1 1.678 0ZM4.817 11.043a.839.839 0 1 1-1.678 0 .839.839 0 0 1 1.678 0Z" fill="#6F797B"/></symbol><symbol viewBox="0 0 13 17" id="icon-check" xmlns="http://www.w3.org/2000/svg"><path d="M5.08 12.148a.75.75 0 0 1-.53-.22l-2.83-2.83a.754.754 0 0 1 0-1.06c.29-.29.77-.29 1.06 0l2.3 2.3 5.14-5.14c.29-.29.77-.29 1.06 0 .29.29.29.77 0 1.06l-5.67 5.67a.75.75 0 0 1-.53.22Z"/></symbol><symbol fill="none" viewBox="0 0 64 65" id="icon-check-in-square" xmlns="http://www.w3.org/2000/svg"><path d="M40 60.731H24c-14.48 0-20.666-6.186-20.666-20.666v-16c0-14.48 6.187-20.667 20.667-20.667h16c14.48 0 20.666 6.187 20.666 20.667v16c0 14.48-6.186 20.666-20.666 20.666ZM24 7.398c-12.293 0-16.666 4.373-16.666 16.667v16c0 12.293 4.373 16.666 16.667 16.666h16c12.293 0 16.666-4.373 16.666-16.666v-16c0-12.294-4.373-16.667-16.666-16.667H24Z" fill="#CA4592"/><path d="M28.214 41.61c-.534 0-1.04-.213-1.413-.587l-7.547-7.546a2.012 2.012 0 0 1 0-2.827 2.012 2.012 0 0 1 2.826 0l6.134 6.133L41.92 23.077a2.012 2.012 0 0 1 2.827 0 2.012 2.012 0 0 1 0 2.826l-15.12 15.12c-.373.374-.88.587-1.413.587Z" fill="#CA4592"/></symbol><symbol viewBox="0 0 16 17" id="icon-cross" xmlns="http://www.w3.org/2000/svg"><path d="m3.307 14.276 3.971-3.971a1.021 1.021 0 0 1 1.444 0l3.97 3.97a.766.766 0 1 0 1.084-1.082L9.805 9.222a1.021 1.021 0 0 1 0-1.444l3.97-3.97a.766.766 0 1 0-1.082-1.084L8.722 6.695a1.021 1.021 0 0 1-1.444 0l-3.97-3.97a.766.766 0 1 0-1.084 1.082l3.971 3.971a1.021 1.021 0 0 1 0 1.444l-3.97 3.97a.766.766 0 1 0 1.082 1.084Z"/></symbol><symbol fill="none" viewBox="0 0 24 24" id="icon-discount" xmlns="http://www.w3.org/2000/svg"><path fill-rule="evenodd" clip-rule="evenodd" d="M12.594 1.964a.706.706 0 0 0-1.189 0l-1.13 1.764a.706.706 0 0 1-.918.246l-1.86-.962a.706.706 0 0 0-1.03.594L6.37 5.698a.706.706 0 0 1-.672.673l-2.092.097a.706.706 0 0 0-.594 1.029l.962 1.86a.706.706 0 0 1-.246.919l-1.764 1.13a.706.706 0 0 0 0 1.188l1.764 1.13a.706.706 0 0 1 .246.919l-.962 1.86a.706.706 0 0 0 .594 1.03l2.092.096a.706.706 0 0 1 .672.673l.097 2.092a.706.706 0 0 0 1.03.594l1.86-.962a.706.706 0 0 1 .919.246l1.13 1.764a.706.706 0 0 0 1.188 0l1.13-1.764a.706.706 0 0 1 .919-.246l1.86.962a.706.706 0 0 0 1.03-.594l.096-2.092a.706.706 0 0 1 .673-.673l2.092-.097a.706.706 0 0 0 .594-1.029l-.962-1.86a.706.706 0 0 1 .246-.919l1.763-1.13a.706.706 0 0 0 0-1.188l-1.763-1.13a.706.706 0 0 1-.246-.919l.962-1.86a.706.706 0 0 0-.594-1.03l-2.092-.096a.706.706 0 0 1-.673-.673l-.097-2.092a.706.706 0 0 0-1.03-.594l-1.86.962a.706.706 0 0 1-.918-.246l-1.13-1.764Zm3.966 6.11a1.059 1.059 0 0 1 0 1.498L9.572 16.56a1.059 1.059 0 0 1-1.497-1.497l6.988-6.988a1.059 1.059 0 0 1 1.497 0Zm-5.99 2.496a1.059 1.059 0 1 1-1.497-1.497 1.059 1.059 0 0 1 1.497 1.497Zm4.992 4.992a1.059 1.059 0 1 1-1.498-1.497 1.059 1.059 0 0 1 1.498 1.497Z" fill="#71BE38"/></symbol><symbol fill="none" viewBox="0 0 37 36" id="icon-dislike" xmlns="http://www.w3.org/2000/svg"><path opacity=".4" d="M4.025 20.94c.585.84 1.62 1.32 2.805 1.32h6.15c.404 0 .78.165 1.034.465.27.3.376.72.316 1.155l-.765 4.92c-.33 1.47.645 3.12 2.115 3.615 1.364.51 2.97-.18 3.614-1.155l6.316-9.405.18-.3V8.295l-.226-.225-4.755-3.675c-.63-.63-2.055-.975-3.06-.975H11.9c-2.01 0-4.034 1.515-4.484 3.36l-3.69 11.235c-.375 1.065-.27 2.115.3 2.925Z" fill="#BA1A1A"/><path d="M28.686 26.415h1.545c2.325 0 3.27-.9 3.27-3.12V8.22c0-2.22-.945-3.12-3.27-3.12h-1.545c-2.325 0-3.27.9-3.27 3.12v15.09c0 2.205.945 3.105 3.27 3.105Z" fill="#BA1A1A"/></symbol><symbol viewBox="0 0 16 17" id="icon-download" xmlns="http://www.w3.org/2000/svg"><path d="M9.999 15.23h-4c-3.62 0-5.167-1.546-5.167-5.166v-4c0-3.62 1.547-5.167 5.167-5.167h4c3.62 0 5.166 1.547 5.166 5.167v4c0 3.62-1.546 5.167-5.166 5.167Zm-4-13.333c-3.074 0-4.167 1.094-4.167 4.167v4c0 3.073 1.093 4.167 4.167 4.167h4c3.073 0 4.166-1.094 4.166-4.167v-4c0-3.073-1.093-4.167-4.166-4.167h-4Z"/><path d="M8 10.238a.495.495 0 0 1-.353-.147l-2-2a.503.503 0 0 1 0-.707.503.503 0 0 1 .707 0L8 9.031l1.647-1.647a.503.503 0 0 1 .707 0 .503.503 0 0 1 0 .707l-2 2c-.1.1-.227.147-.354.147Z"/><path d="M8 10.238a.504.504 0 0 1-.5-.5V4.404c0-.273.227-.5.5-.5s.5.227.5.5v5.334a.5.5 0 0 1-.5.5ZM7.999 12.218c-1.407 0-2.82-.227-4.16-.674a.502.502 0 0 1-.313-.633.494.494 0 0 1 .633-.313c2.48.826 5.207.826 7.687 0a.502.502 0 0 1 .633.313.502.502 0 0 1-.313.633c-1.347.454-2.76.674-4.167.674Z"/></symbol><symbol viewBox="0 0 15 15" id="icon-edit" xmlns="http://www.w3.org/2000/svg"><path d="M10.166 14.732H1.5c-.64 0-1.167-.527-1.167-1.167V4.898c0-2.946 1.553-4.5 4.5-4.5h5.333c2.947 0 4.5 1.554 4.5 4.5v5.334c0 2.946-1.553 4.5-4.5 4.5ZM4.833 1.398c-2.387 0-3.5 1.114-3.5 3.5v8.667c0 .093.073.167.167.167h8.666c2.387 0 3.5-1.114 3.5-3.5V4.898c0-2.386-1.113-3.5-3.5-3.5H4.833Z"/><path fill-rule="evenodd" clip-rule="evenodd" d="M1.65 3.063c-.213.496-.317 1.106-.317 1.835v8.667c0 .093.073.167.167.167h8.666c.73 0 1.34-.104 1.836-.317a2.468 2.468 0 0 0 1.348-1.348c.212-.496.316-1.106.316-1.835V4.898c0-.729-.104-1.34-.316-1.835a2.469 2.469 0 0 0-1.348-1.348c-.496-.213-1.106-.317-1.836-.317H4.833c-.73 0-1.34.104-1.836.317A2.469 2.469 0 0 0 1.65 3.063ZM2.581.805A3.417 3.417 0 0 0 .739 2.647C.47 3.272.333 4.024.333 4.898v8.667c0 .64.527 1.167 1.167 1.167h8.666c.875 0 1.627-.137 2.252-.406a3.417 3.417 0 0 0 1.842-1.843c.27-.625.406-1.377.406-2.251V4.898c0-.874-.136-1.626-.406-2.25A3.417 3.417 0 0 0 12.417.804c-.624-.27-1.376-.407-2.25-.407H4.832c-.874 0-1.626.137-2.251.407Z"/><path d="M4.8 11.399c-.313 0-.6-.114-.813-.32a1.14 1.14 0 0 1-.307-1l.186-1.32c.04-.287.22-.654.427-.86l3.46-3.46c1.187-1.187 2.22-.654 2.873 0 .514.513.747 1.053.694 1.593-.04.44-.274.853-.694 1.28l-3.46 3.46a1.733 1.733 0 0 1-.86.433l-1.32.187c-.06 0-.126.007-.186.007Zm4.386-6.667c-.246 0-.466.16-.72.406l-3.46 3.46a.81.81 0 0 0-.146.294l-.187 1.32c-.006.066 0 .127.027.153.026.027.086.034.153.027l1.32-.187a.76.76 0 0 0 .293-.146l3.46-3.46c.254-.254.387-.474.407-.674.02-.227-.113-.493-.406-.787-.294-.28-.527-.406-.74-.406Z"/><path d="M9.78 7.952a.43.43 0 0 1-.133-.02 3.653 3.653 0 0 1-2.513-2.513.506.506 0 0 1 .346-.62c.267-.074.54.08.614.346a2.658 2.658 0 0 0 1.82 1.82.503.503 0 0 1-.134.987Z"/></symbol><symbol viewBox="0 0 23 23" id="icon-exclamation-mark" xmlns="http://www.w3.org/2000/svg"><path d="M11.5 21.418c-5.436 0-9.854-4.418-9.854-9.854 0-5.436 4.418-9.854 9.854-9.854 5.436 0 9.854 4.418 9.854 9.854 0 5.436-4.418 9.854-9.854 9.854Zm0-18.333c-4.675 0-8.48 3.804-8.48 8.48 0 4.674 3.805 8.478 8.48 8.478 4.675 0 8.479-3.804 8.479-8.479 0-4.675-3.804-8.479-8.48-8.479Z"/><path d="M11.5 13.168a.693.693 0 0 1-.688-.687V7.897c0-.375.312-.687.688-.687.376 0 .688.312.688.687v4.584a.693.693 0 0 1-.688.687ZM11.5 16.148a.913.913 0 0 1-.349-.073 1.06 1.06 0 0 1-.302-.193.949.949 0 0 1-.193-.302.913.913 0 0 1-.073-.349c0-.119.027-.238.073-.348.046-.11.11-.21.193-.302.091-.083.192-.147.302-.193a.917.917 0 0 1 .697 0c.11.046.21.11.302.193.083.091.147.192.193.302.046.11.073.23.073.348 0 .12-.027.239-.073.349a.947.947 0 0 1-.193.302 1.06 1.06 0 0 1-.302.193.913.913 0 0 1-.348.073Z"/></symbol><symbol viewBox="0 0 16 16" id="icon-gear" xmlns="http://www.w3.org/2000/svg"><path d="M8 10.5a2.5 2.5 0 0 1 0-5 2.5 2.5 0 0 1 0 5Zm0-4c-.827 0-1.5.673-1.5 1.5S7.173 9.5 8 9.5 9.5 8.827 9.5 8 8.827 6.5 8 6.5Z"/><path fill-rule="evenodd" clip-rule="evenodd" d="M5.5 8a2.5 2.5 0 0 0 5 0 2.5 2.5 0 0 0-5 0Zm1 0c0-.827.673-1.5 1.5-1.5s1.5.673 1.5 1.5S8.827 9.5 8 9.5 6.5 8.827 6.5 8Z"/><path d="M10.14 14.793c-.14 0-.28-.02-.42-.053a1.638 1.638 0 0 1-.98-.74l-.08-.133c-.394-.68-.934-.68-1.327 0l-.073.126c-.22.373-.567.64-.98.747a1.56 1.56 0 0 1-1.22-.167l-1.147-.66A1.766 1.766 0 0 1 3.26 11.5c.193-.34.246-.647.133-.84-.113-.194-.4-.307-.793-.307A1.77 1.77 0 0 1 .833 8.587V7.413A1.77 1.77 0 0 1 2.6 5.647c.393 0 .68-.114.793-.307.113-.193.067-.5-.133-.84a1.774 1.774 0 0 1-.174-1.34c.12-.46.414-.84.827-1.073l1.153-.66c.754-.447 1.747-.187 2.2.58l.08.133c.394.68.934.68 1.327 0l.073-.127a1.61 1.61 0 0 1 2.207-.58l1.147.66a1.766 1.766 0 0 1 .653 2.414c-.193.34-.247.646-.133.84.113.193.4.306.793.306A1.77 1.77 0 0 1 15.18 7.42v1.173a1.77 1.77 0 0 1-1.767 1.767c-.393 0-.68.113-.793.306-.114.194-.067.5.133.84.233.407.3.887.173 1.34-.12.46-.413.84-.826 1.074l-1.154.66c-.253.14-.526.213-.806.213ZM8 12.327c.593 0 1.146.373 1.526 1.033l.074.127c.08.14.213.24.373.28.16.04.32.02.453-.06l1.154-.667a.771.771 0 0 0 .286-1.047c-.38-.653-.426-1.327-.133-1.84.293-.513.9-.806 1.66-.806.427 0 .767-.34.767-.767V7.407c0-.42-.34-.767-.767-.767-.76 0-1.367-.293-1.66-.807-.293-.513-.247-1.186.133-1.84.1-.173.127-.38.074-.58a.78.78 0 0 0-.354-.466l-1.153-.66a.613.613 0 0 0-.84.22l-.073.126c-.38.66-.934 1.034-1.527 1.034-.593 0-1.147-.374-1.527-1.034L6.393 2.5a.612.612 0 0 0-.827-.213l-1.153.666A.771.771 0 0 0 4.126 4c.38.653.427 1.327.134 1.84-.294.513-.9.807-1.66.807a.763.763 0 0 0-.767.766v1.174c0 .42.34.766.767.766.76 0 1.366.294 1.66.807.293.513.246 1.187-.134 1.84a.762.762 0 0 0-.073.58c.053.2.18.36.353.466l1.154.66a.59.59 0 0 0 .46.067.632.632 0 0 0 .38-.287l.073-.126c.38-.653.933-1.034 1.527-1.034Z"/></symbol><symbol fill="none" viewBox="0 0 37 36" id="icon-like" xmlns="http://www.w3.org/2000/svg"><path opacity=".4" d="M32.975 15.044c-.585-.84-1.62-1.32-2.805-1.32h-6.15c-.405 0-.78-.165-1.035-.465-.27-.3-.375-.72-.315-1.155l.765-4.92c.33-1.47-.645-3.12-2.115-3.615-1.365-.51-2.97.18-3.615 1.155l-6.33 9.405-.18.3v13.26l.225.225 4.755 3.675c.63.63 2.055.975 3.06.975h5.85c2.01 0 4.035-1.515 4.485-3.36l3.69-11.235c.39-1.065.285-2.1-.285-2.925Z" fill="#FFFEFE"/><path d="M8.315 9.57H6.77c-2.325 0-3.27.9-3.27 3.12v15.09c0 2.22.945 3.12 3.27 3.12h1.545c2.325 0 3.27-.9 3.27-3.12V12.69c0-2.22-.945-3.12-3.27-3.12Z" fill="#FFFEFE"/></symbol><symbol fill="none" viewBox="0 0 15 15" id="icon-logout" xmlns="http://www.w3.org/2000/svg"><path d="M9.66 14.411h-.087c-2.96 0-4.387-1.167-4.633-3.78a.501.501 0 1 1 1-.093c.193 2.093 1.18 2.873 3.64 2.873h.086c2.714 0 3.674-.96 3.674-3.673V5.39c0-2.713-.96-3.673-3.674-3.673H9.58c-2.474 0-3.46.793-3.64 2.926a.506.506 0 0 1-1.007-.086c.227-2.654 1.66-3.84 4.64-3.84h.087c3.273 0 4.673 1.4 4.673 4.673v4.347c0 3.273-1.4 4.673-4.673 4.673Z" fill="#BA1A1A"/><path fill-rule="evenodd" clip-rule="evenodd" d="M6.637 12.502c.551.624 1.452.894 2.827.909h.202c2.714 0 3.674-.96 3.674-3.673V5.39c0-2.713-.96-3.673-3.674-3.673H9.46c-1.12.012-1.925.196-2.482.604-.63.461-.943 1.21-1.037 2.322a.506.506 0 0 1-1.007-.086c.122-1.425.591-2.427 1.462-3.05.73-.522 1.743-.776 3.068-.79h.203c3.269.002 4.667 1.402 4.667 4.673v4.347c0 3.27-1.398 4.671-4.667 4.673h-.198c-1.91-.019-3.167-.536-3.87-1.63a3.502 3.502 0 0 1-.244-.452c-.216-.478-.352-1.042-.414-1.698a.501.501 0 1 1 1-.093c.08.867.296 1.51.697 1.963Z" fill="#BA1A1A"/><path d="M9.5 8.064H1.913a.504.504 0 0 1-.5-.5c0-.273.227-.5.5-.5H9.5c.273 0 .5.227.5.5 0 .274-.227.5-.5.5Z" fill="#BA1A1A"/><path d="M3.4 10.298a.495.495 0 0 1-.354-.147L.813 7.918a.503.503 0 0 1 0-.707l2.233-2.233a.503.503 0 0 1 .707 0 .503.503 0 0 1 0 .706l-1.88 1.88 1.88 1.88a.503.503 0 0 1 0 .707.484.484 0 0 1-.353.147Z" fill="#BA1A1A"/></symbol><symbol fill="none" viewBox="0 0 17 16" id="icon-placemark" xmlns="http://www.w3.org/2000/svg"><path fill-rule="evenodd" clip-rule="evenodd" d="m8.962 14.52.001-.001.004-.003.011-.008.043-.031.157-.119a15.864 15.864 0 0 0 2.228-2.111c1.21-1.4 2.468-3.398 2.468-5.683 0-1.365-.54-2.674-1.5-3.64a5.11 5.11 0 0 0-7.254 0 5.192 5.192 0 0 0-1.492 3.64c0 2.285 1.258 4.283 2.468 5.683a15.869 15.869 0 0 0 2.228 2.111c.066.051.132.101.2.15l.012.008.003.003h.001a.366.366 0 0 0 .422 0Zm1.619-7.983a1.83 1.83 0 1 1-3.66 0 1.83 1.83 0 0 1 3.66 0Z" fill="#71BE38"/></symbol><symbol viewBox="0 0 23 23" id="icon-placemark-empty" xmlns="http://www.w3.org/2000/svg"><path d="M11.5 13.49a3.55 3.55 0 0 1-3.548-3.548A3.542 3.542 0 0 1 11.5 6.403a3.55 3.55 0 0 1 3.547 3.548 3.542 3.542 0 0 1-3.547 3.538Zm0-5.712a2.177 2.177 0 0 0-2.173 2.173c0 1.2.972 2.172 2.173 2.172 1.2 0 2.172-.971 2.172-2.172s-.98-2.173-2.172-2.173Z"/><path d="M11.5 21.363a5.473 5.473 0 0 1-3.785-1.53C5.01 17.228 2.022 13.075 3.15 8.135c1.017-4.483 4.931-6.49 8.35-6.49h.01c3.419 0 7.333 2.007 8.35 6.499 1.119 4.94-1.87 9.084-4.574 11.687a5.473 5.473 0 0 1-3.785 1.531Zm0-18.342c-2.667 0-6.095 1.42-7.003 5.417-.99 4.317 1.724 8.04 4.18 10.395a4.057 4.057 0 0 0 5.656 0c2.447-2.356 5.16-6.077 4.19-10.395-.918-3.997-4.355-5.417-7.022-5.417Z"/></symbol><symbol viewBox="0 0 96 96" id="icon-play" xmlns="http://www.w3.org/2000/svg"><path d="M48 8C25.92 8 8 25.92 8 48s17.92 40 40 40 40-17.92 40-40S70.08 8 48 8Zm10.64 46.92-5.12 2.96-5.12 2.96c-6.6 3.8-12 .68-12-6.92V42.08c0-7.64 5.4-10.72 12-6.92l5.12 2.96 5.12 2.96c6.6 3.8 6.6 10.04 0 13.84Z"/></symbol><symbol viewBox="0 0 18 18" id="icon-plus" xmlns="http://www.w3.org/2000/svg"><path fill-rule="evenodd" clip-rule="evenodd" d="M9 0a1 1 0 0 1 1 1v7h7a1 1 0 1 1 0 2h-7v7a1 1 0 1 1-2 0v-7H1a1 1 0 1 1 0-2h7V1a1 1 0 0 1 1-1Z"/></symbol><symbol viewBox="0 0 17 17" id="icon-plus-w-circle" xmlns="http://www.w3.org/2000/svg"><path d="M8.667 15.23A7.173 7.173 0 0 1 1.5 8.064 7.173 7.173 0 0 1 8.667.897a7.173 7.173 0 0 1 7.166 7.167 7.173 7.173 0 0 1-7.166 7.166Zm0-13.333A6.174 6.174 0 0 0 2.5 8.064c0 3.4 2.767 6.166 6.167 6.166s6.166-2.766 6.166-6.166c0-3.4-2.766-6.167-6.166-6.167Z"/><path d="M11.333 8.564H6a.504.504 0 0 1-.5-.5c0-.273.227-.5.5-.5h5.333c.274 0 .5.227.5.5s-.226.5-.5.5Z"/><path d="M8.666 11.23a.504.504 0 0 1-.5-.5V5.398c0-.273.227-.5.5-.5s.5.227.5.5v5.334c0 .273-.227.5-.5.5Z"/></symbol><symbol viewBox="0 0 15 17" id="icon-rotate" xmlns="http://www.w3.org/2000/svg"><path d="M7.5 15.73a6.286 6.286 0 0 1-6.28-6.28c0-3.46 2.813-6.286 6.28-6.286.713 0 1.406.1 2.073.307a.5.5 0 0 1 .333.626.5.5 0 0 1-.626.334 6.088 6.088 0 0 0-1.78-.267 5.283 5.283 0 0 0-5.28 5.28 5.284 5.284 0 0 0 5.28 5.28 5.283 5.283 0 0 0 4.393-8.213.497.497 0 0 1 .14-.694.498.498 0 0 1 .693.14 6.244 6.244 0 0 1 1.06 3.494c-.006 3.46-2.82 6.28-6.286 6.28Z"/><path d="M10.254 4.61c-.14 0-.28-.06-.38-.173L7.947 2.224a.504.504 0 0 1 .047-.707.504.504 0 0 1 .706.047l1.927 2.213c.18.207.16.527-.047.707a.458.458 0 0 1-.326.127Z"/><path d="M8.006 6.25a.512.512 0 0 1-.406-.206.508.508 0 0 1 .106-.7l2.247-1.64a.501.501 0 0 1 .594.807L8.3 6.158a.467.467 0 0 1-.294.093Z"/></symbol><symbol viewBox="0 0 13 10" id="icon-sort" xmlns="http://www.w3.org/2000/svg"><path fill-rule="evenodd" clip-rule="evenodd" d="M.628 1c0-.39.316-.706.706-.706h6a.706.706 0 1 1 0 1.412h-6A.706.706 0 0 1 .628 1Zm10.04-.706c.389 0 .705.316.705.706v6.296l.795-.795a.706.706 0 0 1 .998.998l-2 2a.706.706 0 0 1-.998 0l-2-2a.706.706 0 0 1 .998-.998l.795.795V1c0-.39.316-.706.706-.706ZM.627 5c0-.39.316-.706.706-.706H6a.706.706 0 1 1 0 1.412H1.334A.706.706 0 0 1 .628 5Zm0 4c0-.39.316-.706.706-.706H6a.706.706 0 1 1 0 1.412H1.334A.706.706 0 0 1 .628 9Z"/></symbol><symbol viewBox="0 0 25 24" id="icon-telegram" xmlns="http://www.w3.org/2000/svg"><path fill-rule="evenodd" clip-rule="evenodd" d="m9.983 14.56 7.676-7.342c.337-.317-.074-.471-.521-.184l-9.473 6.334-4.091-1.354c-.884-.286-.89-.93.198-1.393l15.944-6.515c.729-.35 1.431.185 1.153 1.366l-2.715 13.561c-.19.964-.739 1.194-1.5.75l-4.136-3.24-1.989 2.049-.018.02c-.223.229-.407.419-.81.419l.282-4.472Z"/></symbol><symbol viewBox="0 0 90 21" id="icon-texterra" xmlns="http://www.w3.org/2000/svg"><path d="M54.4 0h2.475c-.687 1.68-1.19 3.613-1.953 5.13H52.56c.669-1.663 1.19-3.47 1.841-5.13ZM8.525 20.138H4.027V6.501H0V2.817h13.077l-.525 3.684H8.525v13.637ZM44.792 20.138h-4.48V6.501h-4.027V2.817h13.058l-.525 3.684h-4.026v13.637ZM65.401 20.138h-4.336v-7.784a18.532 18.532 0 0 0-.396-4.66l3.97-.67c.17.49.258 1.002.273 1.517a3.143 3.143 0 0 1 2.635-1.588c.564.005 1.121.134 1.628.38l-.995 3.503a2.437 2.437 0 0 0-1.263-.343 1.587 1.587 0 0 0-1.516.921v8.724ZM30.252 18.154ZM22.847 14.034v-.217a7.22 7.22 0 0 0-1.48-5.075 4.986 4.986 0 0 0-4.101-1.806 5.793 5.793 0 0 0-4.48 1.806 7.222 7.222 0 0 0-1.59 5.02v.345a6.53 6.53 0 0 0 2.006 4.873 6.314 6.314 0 0 0 4.118 1.411h.253a7.978 7.978 0 0 0 5.22-1.806l-1.663-2.436a5.788 5.788 0 0 1-3.269 1.298h-.107a1.92 1.92 0 0 1-1.806-.921 3.328 3.328 0 0 1-.326-1.428h7.225v-1.064Zm-7.224-1.932c.025-.62.246-1.214.632-1.699.258-.271.62-.414.994-.397a1.19 1.19 0 0 1 1.227.83c.142.432.204.885.181 1.337v.128h-2.98l-.054-.2Z"/><path d="m32.602 13.817-.308-.473 3.83-6.03h-5.058l-.577 1.101a6.834 6.834 0 0 0-.65 2.114 7.343 7.343 0 0 0-.777-1.969l-.975-1.697-4.606.903 3.612 5.69-.234.34-4.19 6.342h5.291l.777-1.337a5.931 5.931 0 0 0 .868-2.097c.132.505.327.992.578 1.45l.92 1.984h5.418l-3.92-6.32ZM59.115 14.034v-.217a7.218 7.218 0 0 0-1.484-5.075 4.957 4.957 0 0 0-4.098-1.806 5.803 5.803 0 0 0-4.48 1.806 7.245 7.245 0 0 0-1.59 5.02v.345a6.536 6.536 0 0 0 2.006 4.873 6.354 6.354 0 0 0 4.12 1.411h.235c1.9.039 3.75-.602 5.218-1.806l-1.662-2.493a5.784 5.784 0 0 1-3.196 1.354h-.109a1.92 1.92 0 0 1-1.806-.921 3.305 3.305 0 0 1-.326-1.427h7.225l-.053-1.064Zm-7.224-1.932a2.914 2.914 0 0 1 .487-1.699c.258-.268.622-.413.994-.397a1.194 1.194 0 0 1 1.211.83c.14.432.2.885.18 1.337v.128h-2.889l.017-.2ZM74.61 20.138h-4.315v-7.784c.064-1.564-.07-3.13-.4-4.66l3.974-.67c.166.49.257 1.002.272 1.517a3.144 3.144 0 0 1 2.636-1.588c.564.005 1.12.134 1.624.38l-1.008 3.503a2.449 2.449 0 0 0-1.267-.343 1.592 1.592 0 0 0-1.516.921v8.724ZM89.963 18.189a2.518 2.518 0 0 1-.886-2.314v-4.55a7.487 7.487 0 0 0-.213-1.988A2.912 2.912 0 0 0 87.27 7.53a6.793 6.793 0 0 0-3.034-.594 9.15 9.15 0 0 0-3.179.577c-.9.326-1.765.744-2.58 1.246l1.55 2.691a7.493 7.493 0 0 1 2.259-1.173c.454-.121.92-.18 1.392-.18.316-.04.634.067.865.288.138.274.193.581.16.886v.795h-.738a7.292 7.292 0 0 0-3.83.939 4.296 4.296 0 0 0-.902.738 3.729 3.729 0 0 0-.939 2.639 4.04 4.04 0 0 0 1.174 2.996 4.367 4.367 0 0 0 3.16 1.086 4.98 4.98 0 0 0 3.308-1.068c.334.54.835.957 1.424 1.194h.252l2.293-2.24.094-.09-.037-.071Zm-5.163-1.12a1.45 1.45 0 0 1-.399.27 1.36 1.36 0 0 1-.616.146 1.138 1.138 0 0 1-.991-.49 1.5 1.5 0 0 1-.2-.74v-.124a1.22 1.22 0 0 1 .596-.98c.378-.2.8-.299 1.228-.287h.38v2.204h.002Z"/></symbol><symbol viewBox="0 0 10 17" id="icon-tooltip" xmlns="http://www.w3.org/2000/svg"><path d="M3.505 12.7c0-.529.04-1.024.12-1.486a4.34 4.34 0 0 1 .485-1.32c.198-.396.429-.715.693-.957.27-.25.564-.491.88-.726.322-.242.66-.55 1.012-.924.293-.323.487-.649.583-.979.102-.33.154-.686.154-1.067 0-.279-.033-.539-.1-.78a1.56 1.56 0 0 0-.33-.628 1.854 1.854 0 0 0-.89-.616 3.553 3.553 0 0 0-2.134-.044c-.316.095-.58.242-.792.44-.228.19-.396.43-.506.715-.103.279-.15.583-.143.913H.117c.058-.69.234-1.335.528-1.936a3.966 3.966 0 0 1 1.188-1.463 4.27 4.27 0 0 1 1.452-.748A5.46 5.46 0 0 1 4.913.841c.777 0 1.51.121 2.2.363A3.93 3.93 0 0 1 8.85 2.381c.337.381.59.818.759 1.31.176.483.264.985.264 1.506 0 .697-.15 1.342-.451 1.936A6.69 6.69 0 0 1 8.29 8.761a9.394 9.394 0 0 1-.737.704c-.25.205-.48.407-.693.605a2.929 2.929 0 0 0-.528.65c-.198.336-.312.64-.341.912-.03.264-.044.62-.044 1.067H3.505Zm.01 4.3v-2.662h2.432V17H3.516Z"/></symbol><symbol viewBox="0 0 25 24" id="icon-vk" xmlns="http://www.w3.org/2000/svg"><path d="M13.815 18.174c-6.76 0-10.617-4.635-10.778-12.348h3.387c.111 5.661 2.608 8.059 4.585 8.553V5.826h3.19v4.882c1.952-.21 4.004-2.435 4.696-4.882h3.189a9.42 9.42 0 0 1-4.339 6.155 9.764 9.764 0 0 1 5.08 6.193h-3.51a6.105 6.105 0 0 0-5.117-4.413v4.413h-.383Z"/></symbol><symbol viewBox="0 0 25 24" id="icon-whatsapp" xmlns="http://www.w3.org/2000/svg"><path d="M17.35 13.847c.158.075.265.125.31.2.057.093.057.54-.132 1.06-.19.52-1.095.996-1.531 1.06a3.16 3.16 0 0 1-1.429-.089c-.33-.102-.752-.24-1.293-.47-2.127-.901-3.564-2.927-3.836-3.31a2.909 2.909 0 0 0-.04-.054l-.001-.003c-.12-.157-.925-1.211-.925-2.303 0-1.026.514-1.565.75-1.812l.044-.047a.84.84 0 0 1 .605-.279c.151 0 .303.001.435.008h.05c.133 0 .298-.001.46.382l.251.598c.195.467.41.983.449 1.057.056.112.094.242.019.39a9.539 9.539 0 0 0-.032.064 1.264 1.264 0 0 1-.195.309c-.038.043-.077.09-.116.137a3.726 3.726 0 0 1-.224.253c-.114.111-.232.232-.1.455s.588.953 1.262 1.544a5.877 5.877 0 0 0 1.674 1.04c.063.026.113.048.15.066.227.111.36.093.492-.056s.567-.65.718-.874c.151-.223.303-.186.51-.111.208.074 1.324.613 1.55.725l.125.06Z"/><path fill-rule="evenodd" clip-rule="evenodd" d="M13.087 20.845h-.004a9.199 9.199 0 0 1-4.339-1.085L3.932 21l1.288-4.622a8.784 8.784 0 0 1-1.212-4.46C4.01 7.002 8.082 3 13.087 3a9.102 9.102 0 0 1 6.422 2.616 8.787 8.787 0 0 1 2.656 6.31c-.002 4.917-4.073 8.917-9.078 8.92Zm-4.12-2.7.276.16a7.636 7.636 0 0 0 3.84 1.034h.003c4.16 0 7.545-3.326 7.546-7.414.001-1.98-.783-3.843-2.208-5.245a7.563 7.563 0 0 0-5.335-2.174c-4.162 0-7.547 3.326-7.549 7.413a7.3 7.3 0 0 0 1.154 3.945l.18.28-.763 2.737 2.856-.736Z"/></symbol><symbol fill="none" viewBox="0 0 42 42" id="icon-zoom" xmlns="http://www.w3.org/2000/svg"><path opacity=".4" d="M20.124 36.75c9.182 0 16.625-7.444 16.625-16.625 0-9.182-7.443-16.625-16.625-16.625S3.499 10.943 3.499 20.125c0 9.181 7.443 16.625 16.625 16.625Z" fill="#FFFEFE"/><path d="M37.275 38.5c-.316 0-.63-.123-.858-.35l-3.255-3.255a1.236 1.236 0 0 1 0-1.733 1.236 1.236 0 0 1 1.733 0l3.255 3.255a1.236 1.236 0 0 1 0 1.733c-.245.227-.56.35-.875.35ZM24.849 19.162h-3.063V16.1c0-.718-.595-1.313-1.312-1.313-.718 0-1.313.595-1.313 1.313v3.062H16.1c-.718 0-1.313.595-1.313 1.313 0 .717.595 1.312 1.313 1.312h3.062v3.063c0 .717.595 1.312 1.313 1.312.717 0 1.312-.595 1.312-1.312v-3.063h3.063c.717 0 1.312-.595 1.312-1.312 0-.718-.595-1.313-1.312-1.313Z" fill="#FFFEFE"/></symbol></svg>