<svg width="24" height="25" viewBox="0 0 24 25" fill="none" xmlns="http://www.w3.org/2000/svg">
<path opacity="0.4" d="M16.1913 9.35978C15.8013 9.35978 15.4913 9.04978 15.4913 8.65978V7.37978C15.4913 6.39978 15.0713 5.45978 14.3513 4.79978C13.6113 4.12978 12.6613 3.81978 11.6613 3.90978C9.98133 4.06978 8.51133 5.77978 8.51133 7.55978V8.45978C8.51133 8.84978 8.20133 9.15978 7.81133 9.15978C7.42133 9.15978 7.11133 8.84978 7.11133 8.45978V7.55978C7.11133 5.05978 9.13133 2.74978 11.5213 2.51978C12.9113 2.38978 14.2513 2.82978 15.2813 3.76978C16.3013 4.68978 16.8813 6.00978 16.8813 7.37978V8.65978C16.8813 9.04978 16.5713 9.35978 16.1913 9.35978Z" fill="#CA4592"/>
<path d="M19.9597 9.45996C19.1197 8.52996 17.7397 8.07996 15.7197 8.07996H8.27975C6.25975 8.07996 4.87975 8.52996 4.03975 9.45996C3.06975 10.54 3.09975 11.98 3.20975 12.98L3.90975 18.55C4.11975 20.5 4.90975 22.5 9.20975 22.5H14.7897C19.0897 22.5 19.8797 20.5 20.0897 18.56L20.7897 12.97C20.8997 11.98 20.9197 10.54 19.9597 9.45996ZM8.41975 13.65H8.40975C7.85975 13.65 7.40975 13.2 7.40975 12.65C7.40975 12.1 7.85975 11.65 8.40975 11.65C8.96975 11.65 9.41975 12.1 9.41975 12.65C9.41975 13.2 8.96975 13.65 8.41975 13.65ZM15.4197 13.65H15.4097C14.8597 13.65 14.4097 13.2 14.4097 12.65C14.4097 12.1 14.8597 11.65 15.4097 11.65C15.9697 11.65 16.4197 12.1 16.4197 12.65C16.4197 13.2 15.9697 13.65 15.4197 13.65Z" fill="#CA4592"/>
</svg>
