<svg width="20" height="20" viewBox="0 0 20 20" fill="none" xmlns="http://www.w3.org/2000/svg">
<path opacity="0.5" d="M16.0332 4.64997H15.6998L12.8832 1.8333C12.6582 1.6083 12.2915 1.6083 12.0582 1.8333C11.8332 2.0583 11.8332 2.42497 12.0582 2.6583L14.0498 4.64997H5.94984L7.9415 2.6583C8.1665 2.4333 8.1665 2.06663 7.9415 1.8333C7.7165 1.6083 7.34984 1.6083 7.1165 1.8333L4.30817 4.64997H3.97484C3.22484 4.64997 1.6665 4.64997 1.6665 6.7833C1.6665 7.59163 1.83317 8.12497 2.18317 8.47497C2.38317 8.6833 2.62484 8.79163 2.88317 8.84997C3.12484 8.9083 3.38317 8.91663 3.63317 8.91663H16.3665C16.6248 8.91663 16.8665 8.89997 17.0998 8.84997C17.7998 8.6833 18.3332 8.1833 18.3332 6.7833C18.3332 4.64997 16.7748 4.64997 16.0332 4.64997Z" fill="#CA4592"/>
<path d="M16.375 8.91676H3.6333C3.3833 8.91676 3.12497 8.90843 2.8833 8.8501L3.9333 15.2501C4.16663 16.6834 4.79163 18.3334 7.56663 18.3334H12.2416C15.05 18.3334 15.55 16.9251 15.85 15.3501L17.1083 8.8501C16.875 8.9001 16.625 8.91676 16.375 8.91676ZM8.84163 14.3001C8.84163 14.6251 8.5833 14.8834 8.2583 14.8834C7.9333 14.8834 7.67497 14.6251 7.67497 14.3001V11.5501C7.67497 11.2251 7.9333 10.9668 8.2583 10.9668C8.5833 10.9668 8.84163 11.2251 8.84163 11.5501V14.3001ZM12.4083 14.3001C12.4083 14.6251 12.15 14.8834 11.825 14.8834C11.5 14.8834 11.2416 14.6251 11.2416 14.3001V11.5501C11.2416 11.2251 11.5 10.9668 11.825 10.9668C12.15 10.9668 12.4083 11.2251 12.4083 11.5501V14.3001Z" fill="#CA4592"/>
<path d="M8.84163 14.3001C8.84163 14.6251 8.5833 14.8834 8.2583 14.8834C7.9333 14.8834 7.67497 14.6251 7.67497 14.3001V11.5501C7.67497 11.2251 7.9333 10.9668 8.2583 10.9668C8.5833 10.9668 8.84163 11.2251 8.84163 11.5501V14.3001Z" fill="#CA4592" fill-opacity="0.5"/>
<path d="M12.4083 14.3001C12.4083 14.6251 12.15 14.8834 11.825 14.8834C11.5 14.8834 11.2416 14.6251 11.2416 14.3001V11.5501C11.2416 11.2251 11.5 10.9668 11.825 10.9668C12.15 10.9668 12.4083 11.2251 12.4083 11.5501V14.3001Z" fill="#CA4592" fill-opacity="0.5"/>
</svg>
