<svg width="24" height="25" viewBox="0 0 24 25" fill="none" xmlns="http://www.w3.org/2000/svg">
<path d="M12.3885 21.72C12.4088 22.1311 12.1816 22.4754 11.9178 22.5006C11.6297 22.526 11.3558 22.1705 11.3761 21.72C11.3761 18.7661 11.3761 15.8147 11.3761 12.8608C11.3578 12.4127 11.6317 12.0571 11.9178 12.0848C12.1816 12.1102 12.4088 12.452 12.3885 12.8608C12.3885 15.8147 12.3885 18.7686 12.3885 21.72Z" fill="#CA4592"/>
<path d="M7.68876 19.1848C7.64412 19.991 8.06829 20.7359 8.75834 21.0668C9.61685 21.481 10.4469 21.0385 10.5281 20.9939C10.5322 20.9166 10.5606 19.9239 9.74675 19.3269C9.15411 18.8945 8.35447 18.8397 7.68876 19.1848Z" fill="#CA4592"/>
<path d="M15.9 19.1848C15.9447 19.991 15.5205 20.7359 14.8304 21.0668C13.9719 21.481 13.1418 21.0385 13.0607 20.9939C13.0566 20.9166 13.0282 19.9239 13.842 19.3269C14.4347 18.8945 15.2323 18.8397 15.9 19.1848Z" fill="#CA4592"/>
<path d="M18.9329 12.5774C18.7383 11.7438 18.0467 11.0252 17.7848 10.7548C17.2834 10.2322 16.7688 9.91228 16.4085 9.72303C16.7731 9.60363 17.4112 9.34456 18.0042 8.76784C18.2257 8.55157 19.0786 7.67296 19.1792 6.5105C19.3313 4.75782 17.7558 2.5568 15.5758 2.5478C13.9934 2.54103 12.5095 3.68998 12.0171 5.38184C11.9589 5.16107 11.4576 3.35881 9.80804 2.719C8.03319 2.03191 5.70553 2.9871 4.98482 5.01914C4.13657 7.41164 6.64777 9.40088 7.22299 9.83793C6.15987 10.4867 4.95796 11.5681 5.05869 13.1856C5.18851 15.2808 6.98126 16.8713 9.06275 16.7383C10.4728 16.6483 11.3524 15.6344 11.8828 14.6364C12.6841 16.2562 14.4075 17.1348 16.0189 16.8081C18.1071 16.3846 19.2845 14.0845 18.9329 12.5774Z" fill="#CA4592"/>
<path d="M14.5795 8.14334C13.9882 7.56208 13.0319 7.56208 12.4429 8.14334L12.0018 8.57701L11.5606 8.14334C10.9692 7.56208 10.013 7.56208 9.42396 8.14334C8.83264 8.7246 8.83264 9.6646 9.42396 10.2436L9.86515 10.6773C10.565 11.2154 11.2649 11.7535 11.9648 12.2916C12.6901 11.7535 13.4154 11.2154 14.1407 10.6773L14.5819 10.2436C15.1709 9.6646 15.1709 8.7246 14.5795 8.14334Z" fill="#F1C1DD"/>
</svg>
