<svg width="20" height="20" viewBox="0 0 20 20" fill="none" xmlns="http://www.w3.org/2000/svg">
<path d="M16.9998 9.58341C16.9998 13.6795 13.6793 17.0001 9.58317 17.0001C5.48706 17.0001 2.1665 13.6795 2.1665 9.58341C2.1665 5.4873 5.48706 2.16675 9.58317 2.16675C13.6793 2.16675 16.9998 5.4873 16.9998 9.58341Z" fill="#CA4592" fill-opacity="0.5" stroke="#CA4592"/>
<path d="M17.7501 18.3332C17.6001 18.3332 17.4501 18.2749 17.3418 18.1666L15.7918 16.6166C15.5668 16.3916 15.5668 16.0249 15.7918 15.7916C16.0168 15.5666 16.3835 15.5666 16.6168 15.7916L18.1668 17.3416C18.3918 17.5666 18.3918 17.9332 18.1668 18.1666C18.0501 18.2749 17.9001 18.3332 17.7501 18.3332Z" fill="#CA4592"/>
</svg>
