<svg width="17" height="17" viewBox="0 0 17 17" fill="none" xmlns="http://www.w3.org/2000/svg">
<path d="M8.66667 15.2305C4.71333 15.2305 1.5 12.0172 1.5 8.06388C1.5 4.11055 4.71333 0.897217 8.66667 0.897217C12.62 0.897217 15.8333 4.11055 15.8333 8.06388C15.8333 12.0172 12.62 15.2305 8.66667 15.2305ZM8.66667 1.89722C5.26667 1.89722 2.5 4.66388 2.5 8.06388C2.5 11.4639 5.26667 14.2305 8.66667 14.2305C12.0667 14.2305 14.8333 11.4639 14.8333 8.06388C14.8333 4.66388 12.0667 1.89722 8.66667 1.89722Z" fill="#71BE38"/>
<path d="M11.3333 8.56396H6C5.72667 8.56396 5.5 8.3373 5.5 8.06396C5.5 7.79063 5.72667 7.56396 6 7.56396H11.3333C11.6067 7.56396 11.8333 7.79063 11.8333 8.06396C11.8333 8.3373 11.6067 8.56396 11.3333 8.56396Z" fill="#71BE38"/>
<path d="M8.66602 11.2306C8.39268 11.2306 8.16602 11.0039 8.16602 10.7306V5.39722C8.16602 5.12388 8.39268 4.89722 8.66602 4.89722C8.93935 4.89722 9.16602 5.12388 9.16602 5.39722V10.7306C9.16602 11.0039 8.93935 11.2306 8.66602 11.2306Z" fill="#71BE38"/>
</svg>
