<svg width="20" height="20" viewBox="0 0 20 20" fill="none" xmlns="http://www.w3.org/2000/svg">
<path d="M17.8332 10.0084C17.8332 14.3346 14.3261 17.8417 9.99984 17.8417C5.67361 17.8417 2.1665 14.3346 2.1665 10.0084C2.1665 5.68215 5.67361 2.17505 9.99984 2.17505C14.3261 2.17505 17.8332 5.68215 17.8332 10.0084Z" fill="#CA4592" fill-opacity="0.5" stroke="#CA4592"/>
<path d="M10 5.78345C8.275 5.78345 6.875 7.18345 6.875 8.90845C6.875 10.6001 8.2 11.9751 9.95833 12.0251C9.98333 12.0251 10.0167 12.0251 10.0333 12.0251C10.05 12.0251 10.075 12.0251 10.0917 12.0251C10.1 12.0251 10.1083 12.0251 10.1083 12.0251C11.7917 11.9668 13.1167 10.6001 13.125 8.90845C13.125 7.18345 11.725 5.78345 10 5.78345Z" fill="#CA4592"/>
<path d="M15.6501 16.1333C14.1668 17.5 12.1834 18.3416 10.0001 18.3416C7.81676 18.3416 5.83343 17.5 4.3501 16.1333C4.5501 15.375 5.09176 14.6833 5.88343 14.15C8.15843 12.6333 11.8584 12.6333 14.1168 14.15C14.9168 14.6833 15.4501 15.375 15.6501 16.1333Z" fill="#CA4592"/>
</svg>
