<svg width="20" height="20" viewBox="0 0 20 20" fill="none" xmlns="http://www.w3.org/2000/svg">
<path opacity="0.4" d="M18.3333 7.10008V3.31675C18.3333 2.14175 17.8 1.66675 16.475 1.66675H13.1083C11.7833 1.66675 11.25 2.14175 11.25 3.31675V7.09175C11.25 8.27508 11.7833 8.74175 13.1083 8.74175H16.475C17.8 8.75008 18.3333 8.27508 18.3333 7.10008Z" fill="#CA4592"/>
<path d="M18.3333 16.475V13.1083C18.3333 11.7833 17.8 11.25 16.475 11.25H13.1083C11.7833 11.25 11.25 11.7833 11.25 13.1083V16.475C11.25 17.8 11.7833 18.3333 13.1083 18.3333H16.475C17.8 18.3333 18.3333 17.8 18.3333 16.475Z" fill="#CA4592"/>
<path d="M8.74935 7.09984V3.3165C8.74935 2.1415 8.21602 1.6665 6.89102 1.6665H3.52435C2.19935 1.6665 1.66602 2.1415 1.66602 3.3165V7.0915C1.66602 8.27484 2.19935 8.7415 3.52435 8.7415H6.89102C8.21602 8.74984 8.74935 8.27484 8.74935 7.09984Z" fill="#CA4592"/>
<path opacity="0.4" d="M8.74935 16.475V13.1083C8.74935 11.7833 8.21602 11.25 6.89102 11.25H3.52435C2.19935 11.25 1.66602 11.7833 1.66602 13.1083V16.475C1.66602 17.8 2.19935 18.3333 3.52435 18.3333H6.89102C8.21602 18.3333 8.74935 17.8 8.74935 16.475Z" fill="#CA4592"/>
</svg>
