<svg width="16" height="16" viewBox="0 0 16 16" fill="none" xmlns="http://www.w3.org/2000/svg">
<path d="M10.9193 15.2311H2.1593C1.52597 15.2311 0.939303 14.9378 0.559303 14.4245C0.172637 13.9045 0.0593091 13.2511 0.252642 12.6311L3.0593 3.61108C3.31264 2.77108 4.08598 2.19775 4.96598 2.19775H13.166C13.9726 2.19775 14.6993 2.67781 15.006 3.42448C15.1726 3.81115 15.206 4.25116 15.106 4.68449L12.8593 13.7044C12.646 14.6044 11.846 15.2311 10.9193 15.2311ZM4.97263 3.20443C4.5393 3.20443 4.14597 3.49113 4.01931 3.91113L1.21264 12.9312C1.11931 13.2445 1.17264 13.5711 1.37264 13.8378C1.5593 14.0911 1.85264 14.2378 2.16597 14.2378H10.926C11.386 14.2378 11.786 13.9244 11.8926 13.4778L14.1393 4.45109C14.1926 4.23109 14.1793 4.01112 14.0926 3.81779C13.9326 3.43779 13.5793 3.19775 13.1726 3.19775H4.97263V3.20443Z" fill="#CA4592"/>
<path fill-rule="evenodd" clip-rule="evenodd" d="M4.01931 3.91113L1.21264 12.9312C1.11931 13.2445 1.17264 13.5711 1.37264 13.8378C1.42872 13.9139 1.49443 13.9804 1.56742 14.0362C1.73564 14.1647 1.94253 14.2363 2.1593 14.2378C2.16152 14.2378 2.16375 14.2378 2.16597 14.2378H10.926C11.386 14.2378 11.786 13.9244 11.8926 13.4778L14.1393 4.45109C14.1399 4.44877 14.1404 4.44645 14.141 4.44413C14.1923 4.22657 14.1783 4.00901 14.0926 3.81779C14.0927 3.81789 14.0926 3.81769 14.0926 3.81779C14.0905 3.81261 14.0883 3.80746 14.086 3.80233C13.923 3.43129 13.5738 3.19775 13.1726 3.19775H4.97263V3.20443C4.5393 3.20443 4.14597 3.49113 4.01931 3.91113ZM3.97263 2.46184C4.26753 2.29267 4.60793 2.19775 4.96598 2.19775H13.166C13.1682 2.19775 13.1704 2.19776 13.1726 2.19776C13.9717 2.20039 14.6913 2.67404 15.0003 3.41089C15.0022 3.41541 15.0041 3.41994 15.006 3.42448C15.007 3.42695 15.0081 3.42942 15.0092 3.43189C15.1731 3.81676 15.2053 4.25392 15.106 4.68449L12.8593 13.7044C12.859 13.7058 12.8587 13.7071 12.8584 13.7084C12.8576 13.7115 12.8569 13.7145 12.8561 13.7176C12.6387 14.6084 11.8453 15.2281 10.926 15.2311C10.9238 15.2311 10.9215 15.2311 10.9193 15.2311H2.1593C1.71909 15.2311 1.30143 15.0894 0.960039 14.8306C0.810269 14.7171 0.675178 14.581 0.559303 14.4245C0.172637 13.9045 0.0593091 13.2511 0.252642 12.6311L3.0593 3.61108C3.20956 3.11286 3.54275 2.70845 3.97263 2.46184Z" fill="#CA4592"/>
<path d="M13.8546 15.231H10.668C10.3946 15.231 10.168 15.0044 10.168 14.731C10.168 14.4577 10.3946 14.231 10.668 14.231H13.8546C14.128 14.231 14.3813 14.1177 14.568 13.9177C14.7546 13.7177 14.848 13.451 14.828 13.1777L14.168 4.09772C14.148 3.82438 14.3546 3.58435 14.628 3.56435C14.9013 3.55102 15.1413 3.75098 15.1613 4.02431L15.8213 13.1044C15.8613 13.6511 15.668 14.1977 15.2946 14.5977C14.928 15.0044 14.4013 15.231 13.8546 15.231Z" fill="#CA4592"/>
<path d="M6.45448 4.81768C6.41448 4.81768 6.37448 4.811 6.33448 4.80433C6.06782 4.73766 5.90116 4.47097 5.96783 4.19764L6.66114 1.31768C6.72781 1.05101 6.99448 0.884311 7.26781 0.950978C7.53448 1.01764 7.70116 1.28433 7.63449 1.55767L6.94115 4.43771C6.88782 4.66438 6.68115 4.81768 6.45448 4.81768Z" fill="#CA4592"/>
<path d="M10.9209 4.8244C10.8876 4.8244 10.8476 4.82439 10.8143 4.81106C10.5476 4.75106 10.3743 4.48438 10.4276 4.21772L11.0543 1.3244C11.1143 1.05107 11.3809 0.884433 11.6476 0.937767C11.9143 0.9911 12.0876 1.26436 12.0343 1.53103L11.4076 4.42442C11.3609 4.66442 11.1543 4.8244 10.9209 4.8244Z" fill="#CA4592"/>
<path d="M10.4661 8.56445H5.13281C4.85948 8.56445 4.63281 8.33779 4.63281 8.06445C4.63281 7.79112 4.85948 7.56445 5.13281 7.56445H10.4661C10.7395 7.56445 10.9661 7.79112 10.9661 8.06445C10.9661 8.33779 10.7395 8.56445 10.4661 8.56445Z" fill="#CA4592"/>
<path d="M9.80013 11.2311H4.4668C4.19346 11.2311 3.9668 11.0044 3.9668 10.7311C3.9668 10.4577 4.19346 10.2311 4.4668 10.2311H9.80013C10.0735 10.2311 10.3001 10.4577 10.3001 10.7311C10.3001 11.0044 10.0735 11.2311 9.80013 11.2311Z" fill="#CA4592"/>
</svg>
