<svg width="12" height="12" viewBox="0 0 12 12" fill="none" xmlns="http://www.w3.org/2000/svg">
<path d="M1.30723 11.7757L5.27804 7.80491C5.67677 7.40618 6.32324 7.40618 6.72196 7.80491L10.6928 11.7757C10.9918 12.0748 11.4767 12.0748 11.7757 11.7757C12.0748 11.4767 12.0748 10.9918 11.7757 10.6928L7.80491 6.72196C7.40618 6.32323 7.40618 5.67677 7.80491 5.27804L11.7757 1.30723C12.0748 1.00818 12.0748 0.523333 11.7757 0.224285C11.4767 -0.074762 10.9918 -0.0747616 10.6928 0.224285L6.72196 4.19509C6.32324 4.59382 5.67677 4.59382 5.27804 4.19509L1.30723 0.224285C1.00818 -0.0747619 0.523333 -0.0747616 0.224286 0.224285C-0.0747619 0.523333 -0.0747618 1.00818 0.224286 1.30723L4.19509 5.27804C4.59382 5.67677 4.59382 6.32323 4.19509 6.72196L0.224286 10.6928C-0.0747618 10.9918 -0.0747619 11.4767 0.224286 11.7757C0.523333 12.0748 1.00818 12.0748 1.30723 11.7757Z" fill="#CA4592"/>
</svg>
