<svg width="65" height="65" viewBox="0 0 65 65" fill="none" xmlns="http://www.w3.org/2000/svg">
<path opacity="0.4" d="M43.673 5.83301H21.3263C11.6197 5.83301 5.83301 11.6197 5.83301 21.3263V43.6463C5.83301 53.3797 11.6197 59.1663 21.3263 59.1663H43.6463C53.353 59.1663 59.1397 53.3797 59.1397 43.673V21.3263C59.1663 11.6197 53.3797 5.83301 43.673 5.83301Z" fill="#71BE38"/>
<path d="M41.8307 27.513C44.5995 27.513 46.844 25.2684 46.844 22.4997C46.844 19.7309 44.5995 17.4863 41.8307 17.4863C39.0619 17.4863 36.8174 19.7309 36.8174 22.4997C36.8174 25.2684 39.0619 27.513 41.8307 27.513Z" fill="#71BE38"/>
<path d="M23.1647 27.513C25.9335 27.513 28.178 25.2684 28.178 22.4997C28.178 19.7309 25.9335 17.4863 23.1647 17.4863C20.3959 17.4863 18.1514 19.7309 18.1514 22.4997C18.1514 25.2684 20.3959 27.513 23.1647 27.513Z" fill="#71BE38"/>
<path d="M42.1023 34.9512H22.9023C21.0356 34.9512 19.5156 36.4712 19.5156 38.3645C19.5156 45.5378 25.3556 51.3778 32.529 51.3778C39.7023 51.3778 45.5423 45.5378 45.5423 38.3645C45.5156 36.4978 43.969 34.9512 42.1023 34.9512Z" fill="#71BE38"/>
</svg>
