<svg width="16" height="16" viewBox="0 0 16 16" fill="none" xmlns="http://www.w3.org/2000/svg">
<path d="M8.00065 15.231C4.04732 15.231 0.833984 12.0177 0.833984 8.06437C0.833984 4.11104 4.04732 0.897705 8.00065 0.897705C11.954 0.897705 15.1673 4.11104 15.1673 8.06437C15.1673 12.0177 11.954 15.231 8.00065 15.231ZM8.00065 1.89771C4.60065 1.89771 1.83398 4.66437 1.83398 8.06437C1.83398 11.4644 4.60065 14.231 8.00065 14.231C11.4007 14.231 14.1673 11.4644 14.1673 8.06437C14.1673 4.66437 11.4007 1.89771 8.00065 1.89771Z" fill="#BA1A1A"/>
<path fill-rule="evenodd" clip-rule="evenodd" d="M1.83398 8.06437C1.83398 8.07267 1.834 8.08097 1.83403 8.08927C1.8475 11.4779 4.60895 14.231 8.00065 14.231C11.4007 14.231 14.1673 11.4644 14.1673 8.06437C14.1673 4.67267 11.4141 1.91122 8.02555 1.89775C8.01725 1.89772 8.00895 1.89771 8.00065 1.89771C7.99235 1.89771 7.98405 1.89772 7.97576 1.89775C4.59545 1.91119 1.84747 4.65917 1.83403 8.03948C1.834 8.04777 1.83398 8.05607 1.83398 8.06437ZM0.833984 8.06437C0.833984 12.0177 4.04732 15.231 8.00065 15.231C11.954 15.231 15.1673 12.0177 15.1673 8.06437C15.1673 4.11104 11.954 0.897705 8.00065 0.897705C4.04732 0.897705 0.833984 4.11104 0.833984 8.06437Z" fill="#BA1A1A"/>
<path d="M8.00098 9.23112C7.72764 9.23112 7.50098 9.00445 7.50098 8.73112V5.39779C7.50098 5.12445 7.72764 4.89779 8.00098 4.89779C8.27431 4.89779 8.50098 5.12445 8.50098 5.39779V8.73112C8.50098 9.00445 8.27431 9.23112 8.00098 9.23112Z" fill="#BA1A1A"/>
<path d="M8.00065 11.3979C7.91398 11.3979 7.82732 11.3779 7.74732 11.3445C7.66732 11.3112 7.59398 11.2645 7.52732 11.2045C7.46732 11.1379 7.42065 11.0712 7.38732 10.9845C7.35398 10.9045 7.33398 10.8179 7.33398 10.7312C7.33398 10.6445 7.35398 10.5579 7.38732 10.4779C7.42065 10.3979 7.46732 10.3245 7.52732 10.2579C7.59398 10.1979 7.66732 10.1512 7.74732 10.1179C7.90732 10.0512 8.09398 10.0512 8.25398 10.1179C8.33398 10.1512 8.40732 10.1979 8.47398 10.2579C8.53398 10.3245 8.58065 10.3979 8.61398 10.4779C8.64732 10.5579 8.66732 10.6445 8.66732 10.7312C8.66732 10.8179 8.64732 10.9045 8.61398 10.9845C8.58065 11.0712 8.53398 11.1379 8.47398 11.2045C8.40732 11.2645 8.33398 11.3112 8.25398 11.3445C8.17398 11.3779 8.08732 11.3979 8.00065 11.3979Z" fill="#BA1A1A"/>
</svg>
