<svg width="17" height="17" viewBox="0 0 17 17" fill="none" xmlns="http://www.w3.org/2000/svg">
<g id="&#208;&#152;&#208;&#186;&#208;&#190;&#208;&#189;&#208;&#186;&#208;&#176;/&#208;&#155;&#209;&#131;&#208;&#191;&#208;&#176;">
<g id="vuesax/outline/search-normal">
<g id="search-normal">
<path id="Vector" d="M8.16634 14.9997C4.39967 14.9997 1.33301 11.933 1.33301 8.16634C1.33301 4.39967 4.39967 1.33301 8.16634 1.33301C11.933 1.33301 14.9997 4.39967 14.9997 8.16634C14.9997 11.933 11.933 14.9997 8.16634 14.9997ZM8.16634 2.33301C4.94634 2.33301 2.33301 4.95301 2.33301 8.16634C2.33301 11.3797 4.94634 13.9997 8.16634 13.9997C11.3863 13.9997 13.9997 11.3797 13.9997 8.16634C13.9997 4.95301 11.3863 2.33301 8.16634 2.33301Z" fill="#BFC8CB"/>
<path id="Vector_2" d="M15.1666 15.6666C15.04 15.6666 14.9133 15.62 14.8133 15.52L13.48 14.1866C13.2866 13.9933 13.2866 13.6733 13.48 13.48C13.6733 13.2866 13.9933 13.2866 14.1866 13.48L15.52 14.8133C15.7133 15.0066 15.7133 15.3266 15.52 15.52C15.42 15.62 15.2933 15.6666 15.1666 15.6666Z" fill="#BFC8CB"/>
</g>
</g>
</g>
</svg>
