<svg width="16" height="16" viewBox="0 0 16 16" fill="" xmlns="http://www.w3.org/2000/svg">
<path d="M11.3338 14H6.85382C5.77382 14 4.74048 13.54 4.02048 12.7467L1.66715 10.16C0.547148 8.93333 0.547148 7.08 1.66715 5.84667L4.02048 3.26C4.74048 2.46 5.77382 2 6.85382 2H11.3338C13.4471 2 15.1671 3.72 15.1671 5.83333V10.1667C15.1671 12.28 13.4471 14 11.3338 14ZM6.85382 3C6.06048 3 5.29382 3.34 4.76048 3.92667L2.40048 6.52C1.63382 7.36667 1.63382 8.64 2.40048 9.48667L4.75382 12.0733C5.28715 12.66 6.05382 13 6.84715 13H11.3338C12.8938 13 14.1671 11.7267 14.1671 10.1667V5.83333C14.1671 4.27333 12.8938 3 11.3338 3H6.85382Z" fill=""/>
<path d="M10.6667 10.1466C10.54 10.1466 10.4133 10.0999 10.3133 9.99993L7.02 6.69993C6.82667 6.5066 6.82667 6.1866 7.02 5.99327C7.21333 5.79993 7.53333 5.79993 7.72667 5.99327L11.02 9.29327C11.2133 9.4866 11.2133 9.8066 11.02 9.99993C10.92 10.0999 10.7933 10.1466 10.6667 10.1466Z" fill=""/>
<path d="M7.37333 10.1466C7.24667 10.1466 7.12 10.1 7.02 9.99998C6.82667 9.80665 6.82667 9.48665 7.02 9.29331L10.3133 5.99998C10.5067 5.80665 10.8267 5.80665 11.02 5.99998C11.2133 6.19331 11.2133 6.51331 11.02 6.70665L7.72667 9.99998C7.62667 10.1 7.5 10.1466 7.37333 10.1466Z" fill=""/>
</svg>
