<svg width="64" height="65" viewBox="0 0 64 65" fill="none" xmlns="http://www.w3.org/2000/svg">
<path d="M13.84 17.0771C13.3333 17.0771 12.8 16.8638 12.4267 16.4905C11.6533 15.7171 11.6533 14.4371 12.4267 13.6638L22.1067 3.98381C22.88 3.21048 24.16 3.21048 24.9333 3.98381C25.7067 4.75714 25.7067 6.03714 24.9333 6.81048L15.2533 16.4905C14.8533 16.8638 14.3467 17.0771 13.84 17.0771Z" fill="#CA4592"/>
<path d="M50.1606 17.0771C49.654 17.0771 49.1473 16.8905 48.7473 16.4905L39.0673 6.81048C38.294 6.03714 38.294 4.75714 39.0673 3.98381C39.8406 3.21048 41.1206 3.21048 41.894 3.98381L51.574 13.6638C52.3473 14.4371 52.3473 15.7171 51.574 16.4905C51.2006 16.8638 50.6673 17.0771 50.1606 17.0771Z" fill="#CA4592"/>
<path d="M53.893 28.3302C53.7063 28.3302 53.5197 28.3302 53.333 28.3302H52.7197H10.6663C8.79967 28.3569 6.66634 28.3569 5.11967 26.8102C3.89301 25.6102 3.33301 23.7436 3.33301 20.9969C3.33301 13.6636 8.69301 13.6636 11.253 13.6636H52.7463C55.3063 13.6636 60.6663 13.6636 60.6663 20.9969C60.6663 23.7702 60.1063 25.6102 58.8797 26.8102C57.493 28.1969 55.6263 28.3302 53.893 28.3302ZM11.253 24.3302H53.3597C54.5597 24.3569 55.6797 24.3569 56.053 23.9836C56.2397 23.7969 56.6397 23.1569 56.6397 20.9969C56.6397 17.9836 55.893 17.6636 52.7197 17.6636H11.253C8.07967 17.6636 7.33301 17.9836 7.33301 20.9969C7.33301 23.1569 7.75967 23.7969 7.91967 23.9836C8.29301 24.3302 9.43967 24.3302 10.613 24.3302H11.253Z" fill="#CA4592"/>
<path d="M26.0264 48.8646C24.933 48.8646 24.0264 47.9579 24.0264 46.8646V37.3979C24.0264 36.3046 24.933 35.3979 26.0264 35.3979C27.1197 35.3979 28.0264 36.3046 28.0264 37.3979V46.8646C28.0264 47.9846 27.1197 48.8646 26.0264 48.8646Z" fill="#CA4592"/>
<path d="M38.2939 48.8646C37.2006 48.8646 36.2939 47.9579 36.2939 46.8646V37.3979C36.2939 36.3046 37.2006 35.3979 38.2939 35.3979C39.3873 35.3979 40.2939 36.3046 40.2939 37.3979V46.8646C40.2939 47.9846 39.3873 48.8646 38.2939 48.8646Z" fill="#CA4592"/>
<path d="M39.7063 60.73H23.6263C14.0797 60.73 11.9463 55.05 11.1197 50.1166L7.35967 27.05C7.173 25.9566 7.91967 24.9433 9.013 24.7566C10.1063 24.57 11.1197 25.3166 11.3063 26.41L15.0663 49.45C15.8397 54.17 17.4397 56.73 23.6263 56.73H39.7063C46.5597 56.73 47.333 54.33 48.213 49.69L52.693 26.3566C52.9063 25.2633 53.9463 24.5433 55.0397 24.7833C56.133 24.9966 56.8263 26.0366 56.613 27.13L52.133 50.4633C51.093 55.8766 49.3597 60.73 39.7063 60.73Z" fill="#CA4592"/>
</svg>
