<svg width="16" height="17" viewBox="0 0 16 17" fill="none" xmlns="http://www.w3.org/2000/svg">
<path d="M14.0004 4.55078C13.9871 4.55078 13.9671 4.55078 13.9471 4.55078C10.4204 4.19744 6.90043 4.06411 3.41377 4.41745L2.05377 4.55078C1.77377 4.57744 1.5271 4.37744 1.50043 4.09745C1.47377 3.81745 1.67377 3.57744 1.9471 3.55078L3.3071 3.41745C6.85377 3.05745 10.4471 3.19744 14.0471 3.55078C14.3204 3.57744 14.5204 3.82411 14.4938 4.09745C14.4738 4.35745 14.2538 4.55078 14.0004 4.55078Z" fill="#BA1A1A"/>
<path d="M5.66651 3.87722C5.63984 3.87722 5.61318 3.87722 5.57984 3.87055C5.31318 3.82388 5.12651 3.56388 5.17318 3.29722L5.31984 2.42388C5.42651 1.78388 5.57318 0.897217 7.12651 0.897217H8.87318C10.4332 0.897217 10.5798 1.81722 10.6798 2.43055L10.8265 3.29722C10.8732 3.57055 10.6865 3.83055 10.4198 3.87055C10.1465 3.91722 9.88651 3.73055 9.84651 3.46388L9.69984 2.59722C9.60651 2.01722 9.58651 1.90388 8.87984 1.90388H7.13318C6.42651 1.90388 6.41318 1.99722 6.31318 2.59055L6.15984 3.45722C6.11984 3.70388 5.90651 3.87722 5.66651 3.87722Z" fill="#BA1A1A"/>
<path d="M10.1396 15.2309H5.85961C3.53294 15.2309 3.43961 13.9443 3.36627 12.9043L2.93294 6.19093C2.91294 5.91759 3.12627 5.67759 3.39961 5.65759C3.67961 5.64426 3.91294 5.85093 3.93294 6.12426L4.36627 12.8376C4.43961 13.8509 4.46627 14.2309 5.85961 14.2309H10.1396C11.5396 14.2309 11.5663 13.8509 11.6329 12.8376L12.0663 6.12426C12.0863 5.85093 12.3263 5.64426 12.5996 5.65759C12.8729 5.67759 13.0863 5.91093 13.0663 6.19093L12.6329 12.9043C12.5596 13.9443 12.4663 15.2309 10.1396 15.2309Z" fill="#BA1A1A"/>
<path d="M9.10672 11.564H6.88672C6.61339 11.564 6.38672 11.3373 6.38672 11.064C6.38672 10.7906 6.61339 10.564 6.88672 10.564H9.10672C9.38005 10.564 9.60672 10.7906 9.60672 11.064C9.60672 11.3373 9.38005 11.564 9.10672 11.564Z" fill="#BA1A1A"/>
<path d="M9.66732 8.89722H6.33398C6.06065 8.89722 5.83398 8.67055 5.83398 8.39722C5.83398 8.12388 6.06065 7.89722 6.33398 7.89722H9.66732C9.94065 7.89722 10.1673 8.12388 10.1673 8.39722C10.1673 8.67055 9.94065 8.89722 9.66732 8.89722Z" fill="#BA1A1A"/>
</svg>
