<svg width="16" height="16" viewBox="0 0 16 16" fill="none" xmlns="http://www.w3.org/2000/svg">
<path d="M15.0107 10.8709L14.9476 10.997C14.8528 11.1862 14.6593 11.3056 14.4477 11.3056H14.3308C14.1827 11.3056 14.0701 11.1741 14.0701 11.0261C14.0701 9.94521 13.1938 9.069 12.113 9.069C11.0321 9.069 10.1559 9.94521 10.1559 11.0261C10.1559 11.1743 10.0434 11.3061 9.89523 11.3065L6.19584 11.3212C6.04796 11.3217 5.93514 11.1904 5.93514 11.0425C5.93514 9.96165 5.05893 9.08544 3.97808 9.08544C2.89722 9.08544 2.02101 9.96165 2.02101 11.0425C2.02101 11.1906 1.90836 11.3221 1.76031 11.3221H1.13496C1.06661 11.3221 1.00609 11.2779 0.985252 11.2128L0.822212 10.7035C0.794617 10.6173 0.825611 10.5256 0.856808 10.4333C0.879719 10.3656 0.902739 10.2975 0.902739 10.231V4.67794C0.902739 4.36912 1.15312 4.11877 1.46194 4.11877C3.19371 4.11878 5.74056 4.11877 7.80346 4.11877L7.9411 4.13957C8.72664 4.25824 9.61358 4.50223 10.306 4.89173L12.7496 7.58666L14.0684 8.31122C14.283 8.35496 14.4801 9.0199 14.6351 9.17461L15.1884 9.72684V10.1195C15.1884 10.3804 15.1276 10.6377 15.0107 10.8709Z" fill="#6F797B"/>
<path d="M12.9517 11.0425C12.9517 11.5057 12.5762 11.8813 12.113 11.8813C11.6498 11.8813 11.2742 11.5057 11.2742 11.0425C11.2742 10.5793 11.6498 10.2038 12.113 10.2038C12.5762 10.2038 12.9517 10.5793 12.9517 11.0425Z" fill="#6F797B"/>
<path d="M4.81681 11.0425C4.81681 11.5057 4.44129 11.8813 3.97807 11.8813C3.51484 11.8813 3.13933 11.5057 3.13933 11.0425C3.13933 10.5793 3.51484 10.2038 3.97807 10.2038C4.44129 10.2038 4.81681 10.5793 4.81681 11.0425Z" fill="#6F797B"/>
</svg>
