<svg width="64" height="65" viewBox="0 0 64 65" fill="none" xmlns="http://www.w3.org/2000/svg">
<path d="M40.0006 60.7313H24.0007C9.52065 60.7313 3.33398 54.5446 3.33398 40.0646V24.0646C3.33398 9.58462 9.52065 3.39795 24.0007 3.39795H40.0006C54.4806 3.39795 60.6673 9.58462 60.6673 24.0646V40.0646C60.6673 54.5446 54.4806 60.7313 40.0006 60.7313ZM24.0007 7.39795C11.7073 7.39795 7.33398 11.7713 7.33398 24.0646V40.0646C7.33398 52.3579 11.7073 56.7313 24.0007 56.7313H40.0006C52.294 56.7313 56.6673 52.3579 56.6673 40.0646V24.0646C56.6673 11.7713 52.294 7.39795 40.0006 7.39795H24.0007Z" fill="#CA4592"/>
<path d="M28.2138 41.6099C27.6805 41.6099 27.1738 41.3966 26.8005 41.0232L19.2538 33.4766C18.4805 32.7032 18.4805 31.4232 19.2538 30.6499C20.0272 29.8766 21.3072 29.8766 22.0805 30.6499L28.2138 36.7832L41.9205 23.0766C42.6938 22.3032 43.9738 22.3032 44.7472 23.0766C45.5205 23.8499 45.5205 25.1299 44.7472 25.9032L29.6272 41.0232C29.2538 41.3966 28.7472 41.6099 28.2138 41.6099Z" fill="#CA4592"/>
</svg>
