<svg width="16" height="17" viewBox="0 0 16 17" fill="" xmlns="http://www.w3.org/2000/svg">
<path d="M3.30723 14.2757L7.27804 10.3049C7.67677 9.90618 8.32324 9.90618 8.72196 10.3049L12.6928 14.2757C12.9918 14.5748 13.4767 14.5748 13.7757 14.2757C14.0748 13.9767 14.0748 13.4918 13.7757 13.1928L9.80491 9.22196C9.40618 8.82323 9.40618 8.17677 9.80491 7.77804L13.7757 3.80723C14.0748 3.50818 14.0748 3.02333 13.7757 2.72429C13.4767 2.42524 12.9918 2.42524 12.6928 2.72429L8.72196 6.69509C8.32324 7.09382 7.67677 7.09382 7.27804 6.69509L3.30723 2.72429C3.00818 2.42524 2.52333 2.42524 2.22429 2.72429C1.92524 3.02333 1.92524 3.50818 2.22429 3.80723L6.19509 7.77804C6.59382 8.17677 6.59382 8.82323 6.19509 9.22196L2.22429 13.1928C1.92524 13.4918 1.92524 13.9767 2.22429 14.2757C2.52333 14.5748 3.00818 14.5748 3.30723 14.2757Z" fill=""/>
</svg>
