<svg width="24" height="24" viewBox="0 0 24 24" fill="none" xmlns="http://www.w3.org/2000/svg">
<path fill-rule="evenodd" clip-rule="evenodd" d="M12.5941 1.96447C12.3164 1.53105 11.6832 1.53105 11.4054 1.96447L10.2756 3.72786C10.0789 4.03483 9.68076 4.14151 9.35691 3.974L7.49673 3.01181C7.03952 2.7753 6.49107 3.09195 6.46729 3.60615L6.37048 5.69823C6.35363 6.06244 6.06217 6.35387 5.69798 6.37072L3.60593 6.46753C3.09173 6.49133 2.77506 7.03977 3.01155 7.49697L3.97378 9.35715C4.14129 9.68099 4.03461 10.0791 3.7276 10.2758L1.96423 11.4057C1.5308 11.6834 1.5308 12.3167 1.96423 12.5944L3.7276 13.7242C4.03461 13.9209 4.14129 14.3191 3.97378 14.6429L3.01155 16.5031C2.77506 16.9603 3.09173 17.5087 3.60593 17.5325L5.69798 17.6293C6.06217 17.6462 6.35363 17.9376 6.37048 18.3018L6.46729 20.3939C6.49107 20.9081 7.03952 21.2248 7.49673 20.9882L9.35691 20.0261C9.68076 19.8585 10.0789 19.9652 10.2756 20.2722L11.4054 22.0356C11.6832 22.469 12.3164 22.469 12.5941 22.0356L13.724 20.2722C13.9207 19.9652 14.3188 19.8585 14.6427 20.0261L16.5028 20.9882C16.96 21.2248 17.5085 20.9081 17.5323 20.3939L17.6291 18.3018C17.6459 17.9376 17.9374 17.6462 18.3016 17.6293L20.3936 17.5325C20.9078 17.5087 21.2245 16.9603 20.988 16.5031L20.0258 14.6429C19.8583 14.3191 19.965 13.9209 20.272 13.7242L22.0353 12.5944C22.4688 12.3167 22.4688 11.6834 22.0353 11.4057L20.272 10.2758C19.965 10.0791 19.8583 9.68099 20.0258 9.35715L20.988 7.49697C21.2245 7.03977 20.9078 6.49133 20.3937 6.46753L18.3016 6.37072C17.9374 6.35387 17.6459 6.06244 17.6291 5.69823L17.5323 3.60615C17.5085 3.09195 16.96 2.7753 16.5028 3.01181L14.6427 3.974C14.3188 4.14151 13.9207 4.03483 13.724 3.72786L12.5941 1.96447ZM16.5599 8.07485C16.9734 8.48835 16.9734 9.15877 16.5599 9.57227L9.57202 16.5601C9.1585 16.9736 8.48812 16.9736 8.07461 16.5601C7.66113 16.1466 7.66113 15.4762 8.07461 15.0627L15.0625 8.07485C15.476 7.66136 16.1464 7.66136 16.5599 8.07485ZM10.5703 10.5705C10.1568 10.984 9.48637 10.984 9.0729 10.5705C8.65938 10.157 8.65938 9.48662 9.0729 9.07312C9.48637 8.65963 10.1568 8.65963 10.5703 9.07312C10.9838 9.48662 10.9838 10.157 10.5703 10.5705ZM15.5616 15.5619C15.1481 15.9754 14.4777 15.9754 14.0642 15.5619C13.6507 15.1484 13.6507 14.478 14.0642 14.0645C14.4777 13.651 15.1481 13.651 15.5616 14.0645C15.9751 14.478 15.9751 15.1484 15.5616 15.5619Z" fill="#71BE38"/>
</svg>
