<svg width="37" height="36" viewBox="0 0 37 36" fill="none" xmlns="http://www.w3.org/2000/svg">
<path opacity="0.4" d="M4.02454 20.9399C4.60953 21.7799 5.64453 22.2599 6.82953 22.2599H12.9795C13.3845 22.2599 13.7595 22.4249 14.0145 22.7249C14.2845 23.0249 14.3895 23.4449 14.3295 23.8799L13.5645 28.7999C13.2345 30.2699 14.2095 31.9199 15.6795 32.4149C17.0445 32.9249 18.6495 32.2349 19.2945 31.2599L25.6095 21.8549L25.7895 21.5549V8.29492L25.5645 8.06992L20.8095 4.39492C20.1795 3.76492 18.7545 3.41992 17.7495 3.41992H11.8995C9.88954 3.41992 7.86454 4.93492 7.41454 6.77992L3.72454 18.0149C3.34954 19.0799 3.45454 20.1299 4.02454 20.9399Z" fill="#BA1A1A"/>
<path d="M28.686 26.4151H30.231C32.556 26.4151 33.501 25.5151 33.501 23.2951V8.2201C33.501 6.0001 32.556 5.1001 30.231 5.1001H28.686C26.361 5.1001 25.416 6.0001 25.416 8.2201V23.3101C25.416 25.5151 26.361 26.4151 28.686 26.4151Z" fill="#BA1A1A"/>
</svg>
