<svg width="16" height="17" viewBox="0 0 16 17" fill="" xmlns="http://www.w3.org/2000/svg">
<path d="M9.9987 15.2308H5.9987C2.3787 15.2308 0.832031 13.6841 0.832031 10.0641V6.06413C0.832031 2.44413 2.3787 0.897461 5.9987 0.897461H9.9987C13.6187 0.897461 15.1654 2.44413 15.1654 6.06413V10.0641C15.1654 13.6841 13.6187 15.2308 9.9987 15.2308ZM5.9987 1.89746C2.92536 1.89746 1.83203 2.99079 1.83203 6.06413V10.0641C1.83203 13.1375 2.92536 14.2308 5.9987 14.2308H9.9987C13.072 14.2308 14.1654 13.1375 14.1654 10.0641V6.06413C14.1654 2.99079 13.072 1.89746 9.9987 1.89746H5.9987Z" fill=""/>
<path d="M8.00029 10.2376C7.87362 10.2376 7.74695 10.1909 7.64695 10.0909L5.64695 8.09092C5.45362 7.89759 5.45362 7.57759 5.64695 7.38426C5.84029 7.19092 6.16028 7.19092 6.35362 7.38426L8.00029 9.03093L9.64695 7.38426C9.84029 7.19092 10.1603 7.19092 10.3536 7.38426C10.547 7.57759 10.547 7.89759 10.3536 8.09092L8.35362 10.0909C8.25362 10.1909 8.12695 10.2376 8.00029 10.2376Z" fill=""/>
<path d="M8 10.2376C7.72667 10.2376 7.5 10.011 7.5 9.73763V4.4043C7.5 4.13096 7.72667 3.9043 8 3.9043C8.27333 3.9043 8.5 4.13096 8.5 4.4043V9.73763C8.5 10.0176 8.27333 10.2376 8 10.2376Z" fill=""/>
<path d="M7.99899 12.2176C6.59232 12.2176 5.17899 11.9909 3.83899 11.5442C3.57899 11.4576 3.43899 11.1709 3.52565 10.9109C3.61232 10.6509 3.89232 10.5042 4.15898 10.5976C6.63898 11.4242 9.36565 11.4242 11.8457 10.5976C12.1057 10.5109 12.3923 10.6509 12.479 10.9109C12.5657 11.1709 12.4257 11.4576 12.1657 11.5442C10.819 11.9976 9.40565 12.2176 7.99899 12.2176Z" fill=""/>
</svg>
