<svg width="15" height="15" viewBox="0 0 15 15" fill="" xmlns="http://www.w3.org/2000/svg">
<path d="M10.1663 14.7318H1.49967C0.859675 14.7318 0.333008 14.2051 0.333008 13.5651V4.89844C0.333008 1.95177 1.88634 0.398438 4.83301 0.398438H10.1663C13.113 0.398438 14.6663 1.95177 14.6663 4.89844V10.2318C14.6663 13.1784 13.113 14.7318 10.1663 14.7318ZM4.83301 1.39844C2.44634 1.39844 1.33301 2.51177 1.33301 4.89844V13.5651C1.33301 13.6584 1.40634 13.7318 1.49967 13.7318H10.1663C12.553 13.7318 13.6663 12.6184 13.6663 10.2318V4.89844C13.6663 2.51177 12.553 1.39844 10.1663 1.39844H4.83301Z" fill=""/>
<path fill-rule="evenodd" clip-rule="evenodd" d="M1.64937 3.06283C1.43694 3.55887 1.33301 4.16922 1.33301 4.89844V13.5651C1.33301 13.6584 1.40634 13.7318 1.49967 13.7318H10.1663C10.8955 13.7318 11.5059 13.6278 12.0019 13.4154C12.6334 13.145 13.0796 12.6988 13.35 12.0674C13.5624 11.5713 13.6663 10.961 13.6663 10.2318V4.89844C13.6663 4.16924 13.5624 3.5589 13.35 3.06287C13.0796 2.43144 12.6334 1.98522 12.002 1.71481C11.5059 1.50237 10.8956 1.39844 10.1663 1.39844H4.83301C4.10379 1.39844 3.49344 1.50237 2.9974 1.7148C2.36598 1.98521 1.91978 2.43141 1.64937 3.06283ZM2.58193 0.804652C1.72606 1.17367 1.10824 1.79149 0.739222 2.64736C0.469806 3.27223 0.333008 4.02398 0.333008 4.89844V13.5651C0.333008 14.2051 0.859675 14.7318 1.49967 14.7318H10.1663C11.0408 14.7318 11.7926 14.595 12.4175 14.3255C13.2733 13.9565 13.8911 13.3387 14.2601 12.4829C14.5295 11.858 14.6663 11.1063 14.6663 10.2318V4.89844C14.6663 4.02395 14.5295 3.27218 14.2601 2.64731C13.8911 1.79146 13.2733 1.17366 12.4174 0.804647C11.7925 0.535235 11.0408 0.398438 10.1663 0.398438H4.83301C3.95855 0.398438 3.2068 0.535236 2.58193 0.804652Z" fill=""/>
<path d="M4.79983 11.3985C4.4865 11.3985 4.19983 11.2851 3.9865 11.0785C3.73316 10.8251 3.61982 10.4651 3.67982 10.0785L3.86648 8.75847C3.90648 8.47181 4.08649 8.10514 4.29316 7.89847L7.75316 4.43847C8.93983 3.25181 9.97316 3.78514 10.6265 4.43847C11.1398 4.95181 11.3732 5.49181 11.3198 6.03181C11.2798 6.47181 11.0465 6.88514 10.6265 7.3118L7.16649 10.7718C6.95982 10.9785 6.59982 11.1585 6.30648 11.2051L4.9865 11.3918C4.9265 11.3918 4.85983 11.3985 4.79983 11.3985ZM9.18649 4.73181C8.93982 4.73181 8.71983 4.89181 8.4665 5.13847L5.0065 8.59847C4.95316 8.6518 4.87316 8.81847 4.85983 8.89181L4.67316 10.2118C4.6665 10.2785 4.67315 10.3385 4.69981 10.3651C4.72648 10.3918 4.78649 10.3985 4.85316 10.3918L6.17316 10.2051C6.25316 10.1918 6.41317 10.1118 6.4665 10.0585L9.9265 6.59847C10.1798 6.34514 10.3132 6.12514 10.3332 5.92514C10.3532 5.69847 10.2198 5.43181 9.9265 5.13847C9.63317 4.85847 9.39982 4.73181 9.18649 4.73181Z" fill=""/>
<path d="M9.78021 7.95191C9.73354 7.95191 9.68687 7.94525 9.64687 7.93191C8.4402 7.59191 7.47354 6.63191 7.13354 5.41858C7.06021 5.15191 7.21353 4.87858 7.4802 4.79858C7.74687 4.72525 8.02021 4.87858 8.09354 5.14525C8.34021 6.01858 9.0402 6.71858 9.91353 6.96525C10.1802 7.03858 10.3335 7.31858 10.2602 7.58525C10.2002 7.80525 10.0002 7.95191 9.78021 7.95191Z" fill=""/>
</svg>
