<svg width="23" height="23" viewBox="0 0 23 23" fill="" xmlns="http://www.w3.org/2000/svg">
<path d="M11.4997 21.4183C6.06384 21.4183 1.64551 17 1.64551 11.5641C1.64551 6.12829 6.06384 1.70996 11.4997 1.70996C16.9355 1.70996 21.3538 6.12829 21.3538 11.5641C21.3538 17 16.9355 21.4183 11.4997 21.4183ZM11.4997 3.08496C6.82467 3.08496 3.02051 6.88913 3.02051 11.5641C3.02051 16.2391 6.82467 20.0433 11.4997 20.0433C16.1747 20.0433 19.9788 16.2391 19.9788 11.5641C19.9788 6.88913 16.1747 3.08496 11.4997 3.08496Z" fill=""/>
<path d="M11.5 13.1683C11.1242 13.1683 10.8125 12.8566 10.8125 12.4808V7.89746C10.8125 7.52163 11.1242 7.20996 11.5 7.20996C11.8758 7.20996 12.1875 7.52163 12.1875 7.89746V12.4808C12.1875 12.8566 11.8758 13.1683 11.5 13.1683Z" fill=""/>
<path d="M11.4997 16.1481C11.3805 16.1481 11.2613 16.1206 11.1513 16.0748C11.0413 16.0289 10.9405 15.9648 10.8488 15.8823C10.7663 15.7906 10.7022 15.6989 10.6563 15.5798C10.6105 15.4698 10.583 15.3506 10.583 15.2314C10.583 15.1123 10.6105 14.9931 10.6563 14.8831C10.7022 14.7731 10.7663 14.6723 10.8488 14.5806C10.9405 14.4981 11.0413 14.4339 11.1513 14.3881C11.3713 14.2964 11.628 14.2964 11.848 14.3881C11.958 14.4339 12.0588 14.4981 12.1505 14.5806C12.233 14.6723 12.2972 14.7731 12.343 14.8831C12.3888 14.9931 12.4163 15.1123 12.4163 15.2314C12.4163 15.3506 12.3888 15.4698 12.343 15.5798C12.2972 15.6989 12.233 15.7906 12.1505 15.8823C12.0588 15.9648 11.958 16.0289 11.848 16.0748C11.738 16.1206 11.6188 16.1481 11.4997 16.1481Z" fill=""/>
</svg>
