<svg width="37" height="36" viewBox="0 0 37 36" fill="none" xmlns="http://www.w3.org/2000/svg">
<path opacity="0.4" d="M32.9753 15.0441C32.3903 14.2041 31.3553 13.7241 30.1703 13.7241H24.0203C23.6153 13.7241 23.2403 13.5591 22.9853 13.2591C22.7153 12.9591 22.6103 12.5391 22.6703 12.1041L23.4353 7.18411C23.7653 5.71411 22.7903 4.06411 21.3203 3.56911C19.9553 3.05911 18.3503 3.74911 17.7053 4.72411L11.3753 14.1291L11.1953 14.4291V27.6891L11.4203 27.9141L16.1753 31.5891C16.8053 32.2191 18.2303 32.5641 19.2353 32.5641H25.0853C27.0953 32.5641 29.1203 31.0491 29.5703 29.2041L33.2603 17.9691C33.6503 16.9041 33.5453 15.8691 32.9753 15.0441Z" fill="#FFFEFE"/>
<path d="M8.315 9.56934H6.77C4.445 9.56934 3.5 10.4693 3.5 12.6893V27.7793C3.5 29.9993 4.445 30.8993 6.77 30.8993H8.315C10.64 30.8993 11.585 29.9993 11.585 27.7793V12.6893C11.585 10.4693 10.64 9.56934 8.315 9.56934Z" fill="#FFFEFE"/>
</svg>
