<svg width="15" height="15" viewBox="0 0 15 15" fill="none" xmlns="http://www.w3.org/2000/svg">
<path d="M9.65968 14.4111H9.57302C6.61302 14.4111 5.18635 13.2444 4.93968 10.6311C4.91302 10.3578 5.11302 10.1111 5.39302 10.0844C5.65968 10.0578 5.91302 10.2644 5.93968 10.5378C6.13302 12.6311 7.11968 13.4111 9.57968 13.4111H9.66635C12.3797 13.4111 13.3397 12.4511 13.3397 9.73777V5.39111C13.3397 2.67777 12.3797 1.71777 9.66635 1.71777H9.57968C7.10635 1.71777 6.11968 2.51111 5.93968 4.64444C5.90635 4.91777 5.67302 5.12444 5.39302 5.09777C5.11302 5.07777 4.91302 4.83111 4.93302 4.55777C5.15968 1.90444 6.59302 0.717774 9.57302 0.717774H9.65968C12.933 0.717774 14.333 2.11777 14.333 5.39111V9.73777C14.333 13.0111 12.933 14.4111 9.65968 14.4111Z" fill="#BA1A1A"/>
<path fill-rule="evenodd" clip-rule="evenodd" d="M6.63708 12.5015C7.18835 13.1262 8.0886 13.3963 9.46361 13.4105C9.50039 13.4109 9.53751 13.4111 9.57498 13.4111C9.57654 13.4111 9.57811 13.4111 9.57968 13.4111H9.66635C12.3797 13.4111 13.3397 12.4511 13.3397 9.73777V5.39111C13.3397 2.67777 12.3797 1.71777 9.66635 1.71777C9.66413 1.71777 9.66191 1.71777 9.65968 1.71777L9.57968 1.71777C9.57929 1.71777 9.5789 1.71777 9.57851 1.71777C9.53834 1.71778 9.49857 1.71799 9.45918 1.71842C8.33934 1.7305 7.53422 1.91372 6.97683 2.3219C6.34712 2.78305 6.0336 3.53135 5.93968 4.64444C5.90635 4.91777 5.67302 5.12444 5.39302 5.09777C5.11302 5.07777 4.91302 4.83111 4.93302 4.55777C5.05474 3.13288 5.52446 2.13096 6.39482 1.50865C7.12517 0.986447 8.13764 0.731543 9.46333 0.718318C9.49966 0.717955 9.53622 0.717774 9.57302 0.717774C9.57524 0.717773 9.57746 0.717774 9.57968 0.717774L9.65968 0.717774C9.66191 0.717774 9.66413 0.717773 9.66635 0.717774C12.9349 0.719675 14.333 2.12 14.333 5.39111V9.73777C14.333 13.0089 12.9349 14.4092 9.66635 14.4111C9.66413 14.4111 9.66191 14.4111 9.65968 14.4111H9.57968C9.57804 14.4111 9.57639 14.4111 9.57475 14.4111C9.57417 14.4111 9.57359 14.4111 9.57302 14.4111C9.53766 14.4111 9.50252 14.4109 9.4676 14.4106C7.55797 14.3924 6.3008 13.8749 5.59762 12.7802C5.50723 12.6394 5.426 12.4892 5.35371 12.3292C5.13772 11.8513 5.00157 11.2867 4.93968 10.6311C4.91302 10.3578 5.11302 10.1111 5.39302 10.0844C5.65968 10.0578 5.91302 10.2644 5.93968 10.5378C6.0198 11.4052 6.23613 12.0471 6.63708 12.5015Z" fill="#BA1A1A"/>
<path d="M9.49975 8.06445H1.91309C1.63975 8.06445 1.41309 7.83779 1.41309 7.56445C1.41309 7.29112 1.63975 7.06445 1.91309 7.06445H9.49975C9.77309 7.06445 9.99975 7.29112 9.99975 7.56445C9.99975 7.83779 9.77309 8.06445 9.49975 8.06445Z" fill="#BA1A1A"/>
<path d="M3.39964 10.2978C3.27297 10.2978 3.1463 10.2511 3.0463 10.1511L0.812969 7.91776C0.619635 7.72443 0.619635 7.40443 0.812969 7.2111L3.0463 4.97776C3.23964 4.78443 3.55964 4.78443 3.75297 4.97776C3.9463 5.1711 3.9463 5.4911 3.75297 5.68443L1.87297 7.56443L3.75297 9.44443C3.9463 9.63776 3.9463 9.95776 3.75297 10.1511C3.65964 10.2511 3.5263 10.2978 3.39964 10.2978Z" fill="#BA1A1A"/>
</svg>
