<svg width="17" height="16" viewBox="0 0 17 16" fill="none" xmlns="http://www.w3.org/2000/svg">
<path fill-rule="evenodd" clip-rule="evenodd" d="M8.96187 14.5195L8.96333 14.5187L8.96699 14.5162L8.97797 14.5078L9.02114 14.4767C9.05773 14.4496 9.11116 14.4101 9.17848 14.3581C9.31314 14.2549 9.50414 14.1031 9.7321 13.908C10.3305 13.3966 10.8901 12.8413 11.4061 12.2468C12.6165 10.8469 13.8738 8.84866 13.8738 6.56431C13.8738 5.19948 13.3344 3.88954 12.3743 2.92355C11.8997 2.44545 11.3353 2.06593 10.7135 1.80683C10.0917 1.54773 9.42474 1.41416 8.7511 1.41382C8.07749 1.41411 7.41058 1.54762 6.78877 1.80666C6.16695 2.0657 5.6025 2.44515 5.1199 2.92318C4.16682 3.89138 3.62777 5.20046 3.62842 6.56468C3.62842 8.84866 4.88567 10.8469 6.09609 12.2468C6.61215 12.8413 7.1717 13.3966 7.77011 13.908C7.99844 14.1031 8.18907 14.2549 8.32373 14.3581C8.38977 14.409 8.45649 14.459 8.52388 14.5081L8.53559 14.5162L8.53888 14.5187L8.54034 14.5195C8.66658 14.6084 8.83563 14.6084 8.96187 14.5195ZM10.5806 6.5365C10.5806 7.02173 10.3879 7.48707 10.0448 7.83018C9.70167 8.17328 9.23633 8.36603 8.7511 8.36603C8.26588 8.36603 7.80053 8.17328 7.45743 7.83018C7.11433 7.48707 6.92157 7.02173 6.92157 6.5365C6.92157 6.05128 7.11433 5.58593 7.45743 5.24283C7.80053 4.89973 8.26588 4.70697 8.7511 4.70697C9.23633 4.70697 9.70167 4.89973 10.0448 5.24283C10.3879 5.58593 10.5806 6.05128 10.5806 6.5365Z" fill="#71BE38"/>
</svg>
