<svg width="23" height="23" viewBox="0 0 23 23" fill="" xmlns="http://www.w3.org/2000/svg">
<path d="M11.4996 13.4892C9.54715 13.4892 7.95215 11.9033 7.95215 9.94165C7.95215 7.97999 9.54715 6.40332 11.4996 6.40332C13.4521 6.40332 15.0471 7.98915 15.0471 9.95082C15.0471 11.9125 13.4521 13.4892 11.4996 13.4892ZM11.4996 7.77832C10.308 7.77832 9.32715 8.74999 9.32715 9.95082C9.32715 11.1517 10.2988 12.1233 11.4996 12.1233C12.7005 12.1233 13.6721 11.1517 13.6721 9.95082C13.6721 8.74999 12.6913 7.77832 11.4996 7.77832Z" fill=""/>
<path d="M11.5005 21.363C10.1439 21.363 8.77803 20.8497 7.71469 19.8322C5.01053 17.2288 2.02219 13.0763 3.14969 8.13551C4.16719 3.65301 8.08136 1.64551 11.5005 1.64551C11.5005 1.64551 11.5005 1.64551 11.5097 1.64551C14.9289 1.64551 18.843 3.65301 19.8605 8.14467C20.9789 13.0855 17.9905 17.2288 15.2864 19.8322C14.223 20.8497 12.8572 21.363 11.5005 21.363ZM11.5005 3.02051C8.83303 3.02051 5.40469 4.44134 4.49719 8.43801C3.50719 12.7555 6.22053 16.4772 8.67719 18.833C10.263 20.3638 12.7472 20.3638 14.333 18.833C16.7805 16.4772 19.4939 12.7555 18.5222 8.43801C17.6055 4.44134 14.168 3.02051 11.5005 3.02051Z" fill=""/>
</svg>
