<svg width="15" height="17" viewBox="0 0 15 17" fill="" xmlns="http://www.w3.org/2000/svg">
<path d="M7.49973 15.7307C4.03306 15.7307 1.21973 12.9107 1.21973 9.45073C1.21973 5.99073 4.03306 3.16406 7.49973 3.16406C8.21306 3.16406 8.90639 3.26406 9.57306 3.47073C9.83973 3.55073 9.98639 3.83073 9.90639 4.0974C9.82639 4.36406 9.54639 4.51073 9.27973 4.43073C8.71306 4.2574 8.11306 4.16406 7.49973 4.16406C4.58639 4.16406 2.21973 6.53073 2.21973 9.44406C2.21973 12.3574 4.58639 14.7241 7.49973 14.7241C10.4131 14.7241 12.7797 12.3574 12.7797 9.44406C12.7797 8.39073 12.4731 7.3774 11.8931 6.51073C11.7397 6.28406 11.7997 5.97073 12.0331 5.8174C12.2597 5.66406 12.5731 5.72406 12.7264 5.9574C13.4197 6.99073 13.7864 8.1974 13.7864 9.45073C13.7797 12.9107 10.9664 15.7307 7.49973 15.7307Z" fill=""/>
<path d="M10.2536 4.61061C10.1136 4.61061 9.97363 4.55061 9.87363 4.43727L7.94696 2.22394C7.76696 2.01727 7.78696 1.69727 7.99363 1.51727C8.2003 1.33727 8.5203 1.35727 8.7003 1.56394L10.627 3.77727C10.807 3.98394 10.787 4.30394 10.5803 4.48394C10.4936 4.57061 10.3736 4.61061 10.2536 4.61061Z" fill=""/>
<path d="M8.00648 6.25093C7.85315 6.25093 7.69982 6.17759 7.59982 6.04426C7.43982 5.82426 7.48648 5.51093 7.70648 5.34426L9.95315 3.70426C10.1731 3.53759 10.4865 3.59093 10.6531 3.81093C10.8198 4.03093 10.7665 4.34426 10.5465 4.51093L8.29982 6.15759C8.21315 6.22426 8.11315 6.25093 8.00648 6.25093Z" fill=""/>
</svg>
