<svg width="13" height="10" viewBox="0 0 13 10" fill="" xmlns="http://www.w3.org/2000/svg">
<path fill-rule="evenodd" clip-rule="evenodd" d="M0.62793 1.00007C0.62793 0.610224 0.943964 0.294189 1.33381 0.294189H7.33381C7.72366 0.294189 8.03969 0.610224 8.03969 1.00007C8.03969 1.38992 7.72366 1.70595 7.33381 1.70595H1.33381C0.943964 1.70595 0.62793 1.38992 0.62793 1.00007ZM10.6671 0.294189C11.057 0.294189 11.373 0.610224 11.373 1.00007V7.29592L12.168 6.50094C12.4437 6.22527 12.8906 6.22527 13.1663 6.50094C13.4419 6.7766 13.4419 7.22354 13.1663 7.49921L11.1663 9.4992C10.8906 9.77487 10.4437 9.77487 10.168 9.4992L8.16801 7.49921C7.89235 7.22354 7.89235 6.7766 8.16801 6.50094C8.44368 6.22527 8.89062 6.22527 9.16628 6.50094L9.96126 7.29592V1.00007C9.96126 0.610224 10.2773 0.294189 10.6671 0.294189ZM0.62793 5.00007C0.62793 4.61022 0.943964 4.29419 1.33381 4.29419H6.00048C6.39033 4.29419 6.70636 4.61022 6.70636 5.00007C6.70636 5.38992 6.39033 5.70595 6.00048 5.70595H1.33381C0.943964 5.70595 0.62793 5.38992 0.62793 5.00007ZM0.62793 9.00007C0.62793 8.61022 0.943964 8.29419 1.33381 8.29419H6.00048C6.39033 8.29419 6.70636 8.61022 6.70636 9.00007C6.70636 9.38992 6.39033 9.70595 6.00048 9.70595H1.33381C0.943964 9.70595 0.62793 9.38992 0.62793 9.00007Z" fill=""/>
</svg>
