<svg width="90" height="21" viewBox="0 0 90 21" fill="" xmlns="http://www.w3.org/2000/svg">
<path d="M54.4001 0H56.8747C56.1884 1.67949 55.6844 3.61255 54.9221 5.12926H52.5586C53.2277 3.46699 53.7497 1.66071 54.4001 0Z" fill=""/>
<path d="M8.52503 20.1382H4.02734V6.50115H0V2.81738H13.0767L12.5524 6.50115H8.52503V20.1382Z" fill=""/>
<path d="M44.7922 20.1382H40.3125V6.50115H36.2852V2.81738H49.3431L48.818 6.50115H44.7922V20.1382Z" fill=""/>
<path d="M65.4014 20.1383H61.0649V12.3536C61.1299 10.7899 60.9976 9.22391 60.6689 7.69311L64.6392 7.02476C64.809 7.51389 64.8966 8.02572 64.9123 8.54147C65.4539 7.58903 66.4517 6.98641 67.5474 6.95276C68.1108 6.95824 68.6681 7.08737 69.1752 7.33233L68.1805 10.8361C67.7994 10.6084 67.3595 10.4902 66.9173 10.4933C66.2693 10.4628 65.6706 10.8283 65.4006 11.4144V20.1383H65.4014Z" fill=""/>
<path d="M30.2524 18.1535C29.9988 17.6957 29.8047 17.2089 29.6748 16.7041C29.8063 17.2089 30.0012 17.6957 30.2524 18.1535Z" fill=""/>
<path d="M22.8474 14.0339C22.8474 14.0339 22.8474 13.8899 22.8474 13.8171C23.0133 11.9991 22.4842 10.1858 21.3667 8.74188C20.3626 7.52491 18.8419 6.85499 17.2658 6.9356C15.5816 6.85734 13.9451 7.5163 12.7869 8.74188C11.6434 10.1553 11.0761 11.9498 11.1966 13.7616C11.1966 13.8735 11.1966 13.9964 11.1966 14.1067C11.1512 15.9396 11.8782 17.7099 13.2024 18.9801C14.3662 19.9247 15.8234 20.4232 17.3205 20.3911H17.5725C19.4727 20.4295 21.3236 19.7893 22.7926 18.5848L21.1303 16.1486C20.2021 16.9108 19.0603 17.3624 17.8613 17.4469H17.7541C17.0255 17.5087 16.3243 17.1511 15.9478 16.5258C15.7342 16.0805 15.6238 15.5913 15.6223 15.0983H22.8466V14.0339H22.8474ZM15.6231 12.1016C15.6481 11.4818 15.8688 10.8878 16.2546 10.4034C16.5129 10.1318 16.8745 9.98859 17.2485 10.0058C17.8019 9.96354 18.3098 10.3079 18.4757 10.8369C18.6181 11.2682 18.6799 11.7213 18.6572 12.1729V12.3012H15.6771L15.6231 12.1016Z" fill=""/>
<path d="M32.6019 13.8171L32.2943 13.3444L36.1237 7.31436H31.0664L30.4888 8.4155C30.1594 9.07994 29.9394 9.79369 29.8393 10.5293C29.6765 9.83908 29.4151 9.17542 29.0621 8.56029L28.087 6.86279L23.4813 7.76593L27.0931 13.4555L26.8591 13.796L22.6689 20.1383H27.9602L28.7373 18.8008C29.1584 18.1645 29.4527 17.4555 29.6053 16.7042C29.7367 17.209 29.9324 17.6958 30.1828 18.1536L31.1032 20.1383H36.5212L32.6019 13.8171Z" fill=""/>
<path d="M59.1152 14.0339C59.1152 14.0339 59.1152 13.8899 59.1152 13.8171C59.2796 11.9991 58.7513 10.1858 57.6314 8.74188C56.632 7.52178 55.1098 6.85186 53.5328 6.9356C51.8502 6.85734 50.2137 7.5163 49.0523 8.74188C47.9113 10.1553 47.3455 11.9498 47.4636 13.7616C47.4636 13.8735 47.4636 13.9964 47.4636 14.1067C47.419 15.9396 48.1461 17.7099 49.4695 18.9801C50.6356 19.9215 52.0904 20.4201 53.5892 20.3911H53.8239C55.7233 20.4295 57.5735 19.7893 59.0424 18.5848L57.3801 16.0922C56.4801 16.8599 55.3633 17.3319 54.1839 17.4461H54.0752C53.345 17.508 52.6477 17.1503 52.2689 16.525C52.0552 16.0797 51.9433 15.5905 51.9433 15.0975H59.1676L59.1152 14.0339ZM51.8909 12.1016C51.8737 11.4983 52.0435 10.9058 52.3777 10.4034C52.6359 10.1349 52.9998 9.99015 53.3724 10.0058C53.9171 9.97215 54.4187 10.3149 54.5831 10.8369C54.7239 11.2682 54.7826 11.7213 54.7623 12.1729V12.3012H51.8744L51.8909 12.1016Z" fill=""/>
<path d="M74.6108 20.1383H70.2946V12.3536C70.3588 10.7899 70.2242 9.22391 69.8955 7.69311L73.8688 7.02476C74.0355 7.51389 74.1263 8.02572 74.1412 8.54147C74.6835 7.58903 75.6806 6.98641 76.777 6.95276C77.3405 6.95824 77.8978 7.08737 78.401 7.33233L77.393 10.8361C77.0087 10.6084 76.572 10.4902 76.1259 10.4933C75.481 10.4628 74.8831 10.8283 74.61 11.4144V20.1383H74.6108Z" fill=""/>
<path d="M89.9625 18.1888C89.2825 17.6253 88.9451 16.7457 89.0774 15.8754C89.0774 15.8754 89.0774 15.8754 89.0774 15.7494V13.8171V11.3253C89.097 10.6553 89.0218 9.98699 88.8638 9.33742C88.6172 8.53367 88.0389 7.87393 87.2711 7.53036C86.3187 7.10227 85.2809 6.89722 84.2369 6.93557C83.1514 6.93792 82.0754 7.13357 81.058 7.51314C80.1579 7.83871 79.2932 8.25663 78.4777 8.75907L80.0288 11.4505C80.7089 10.9332 81.4743 10.5356 82.2867 10.2766C82.7406 10.156 83.207 10.0966 83.6789 10.0966C83.9951 10.0566 84.3128 10.1639 84.5437 10.3853C84.6815 10.6593 84.737 10.966 84.7049 11.2705V12.0664H83.9661C82.6287 12.0194 81.3037 12.3481 80.1368 13.0048C79.8019 13.2106 79.5005 13.4563 79.2337 13.7435C78.5888 14.4675 78.2546 15.4144 78.2953 16.3817C78.2546 17.4993 78.6796 18.5864 79.4685 19.3784C80.3356 20.1461 81.4743 20.5343 82.6287 20.4639C83.8253 20.5163 84.9976 20.1383 85.9368 19.3964C86.2709 19.9356 86.7718 20.3527 87.3611 20.5899H87.6131L89.9062 18.35L90.0001 18.2592L89.9625 18.1888ZM84.7996 17.0681C84.683 17.18 84.5476 17.2708 84.4013 17.3381C84.2103 17.4351 83.999 17.4852 83.7854 17.4852C83.3925 17.5024 83.0176 17.3209 82.7938 16.9953C82.6654 16.7699 82.5942 16.5148 82.5942 16.2542C82.5942 16.2542 82.5942 16.2542 82.5942 16.1313C82.6177 15.7259 82.8407 15.3573 83.1898 15.1515C83.5678 14.9519 83.9904 14.8525 84.4185 14.8642H84.7989V17.0681H84.7996Z" fill=""/>
</svg>
