<svg viewBox="0 0 10 17" xmlns="http://www.w3.org/2000/svg">
<path d="M3.50458 12.6991C3.50458 12.1711 3.54491 11.6761 3.62558 11.2141C3.71358 10.7521 3.87491 10.3121 4.10958 9.89406C4.30758 9.49806 4.53858 9.17907 4.80258 8.93707C5.07391 8.68773 5.36724 8.44573 5.68258 8.21107C6.00524 7.96907 6.34258 7.66107 6.69458 7.28707C6.98791 6.9644 7.18224 6.63807 7.27758 6.30806C7.38024 5.97806 7.43158 5.6224 7.43158 5.24107C7.43158 4.9624 7.39858 4.70207 7.33258 4.46006C7.26658 4.21806 7.15658 4.00906 7.00258 3.83307C6.76791 3.53973 6.47091 3.3344 6.11158 3.21707C5.75224 3.0924 5.37824 3.03006 4.98958 3.03006C4.63758 3.03006 4.30024 3.07773 3.97758 3.17306C3.66224 3.2684 3.39824 3.41506 3.18558 3.61307C2.95824 3.80373 2.78958 4.04206 2.67958 4.32806C2.57691 4.60673 2.52924 4.91106 2.53658 5.24107H0.116577C0.175244 4.55173 0.351244 3.9064 0.644577 3.30507C0.937911 2.70373 1.33391 2.21607 1.83258 1.84207C2.25791 1.50473 2.74191 1.2554 3.28458 1.09406C3.82724 0.925398 4.36991 0.841064 4.91258 0.841064C5.68991 0.841064 6.42324 0.962064 7.11258 1.20406C7.80924 1.44606 8.38858 1.8384 8.85058 2.38106C9.18791 2.7624 9.44091 3.19873 9.60958 3.69007C9.78558 4.17407 9.87358 4.6764 9.87358 5.19706C9.87358 5.89373 9.72324 6.53907 9.42258 7.13307C9.12924 7.72707 8.75158 8.26973 8.28958 8.76107C8.04758 9.01773 7.80191 9.2524 7.55258 9.46507C7.30324 9.6704 7.07224 9.87206 6.85958 10.0701C6.64691 10.2681 6.47091 10.4844 6.33158 10.7191C6.13358 11.0564 6.01991 11.3607 5.99058 11.6321C5.96124 11.8961 5.94658 12.2517 5.94658 12.6991H3.50458ZM3.51558 17.0001V14.3381H5.94658V17.0001H3.51558Z"/>
</svg>
