<svg width="25" height="24" viewBox="0 0 25 24" fill="" xmlns="http://www.w3.org/2000/svg">
<path d="M13.815 18.1738C7.05409 18.1738 3.19779 13.5388 3.03711 5.82617H6.42373C6.53497 11.487 9.03168 13.8849 11.0093 14.3793V5.82617H14.1981V10.7083C16.151 10.4982 18.2028 8.27344 18.8949 5.82617H22.0838C21.823 7.09539 21.303 8.29715 20.5566 9.35626C19.8101 10.4154 18.8531 11.3091 17.7454 11.9814C18.9818 12.5958 20.0739 13.4654 20.9495 14.5328C21.8252 15.6002 22.4645 16.8411 22.8254 18.1738H19.3151C18.9912 17.0163 18.3329 15.9801 17.4226 15.1952C16.5124 14.4102 15.3907 13.9114 14.1981 13.7613V18.1738H13.815Z" fill=""/>
</svg>
