<svg width="25" height="24" viewBox="0 0 25 24" fill="" xmlns="http://www.w3.org/2000/svg">
<path d="M17.3496 13.8465C17.5078 13.9216 17.6146 13.9723 17.6603 14.0471C17.717 14.14 17.717 14.5862 17.528 15.1069C17.3389 15.6275 16.4326 16.1027 15.9968 16.1666C15.606 16.2241 15.1114 16.248 14.568 16.0783C14.2385 15.9757 13.816 15.8385 13.2748 15.6088C11.148 14.7066 9.71077 12.6814 9.43926 12.2989C9.42025 12.2721 9.40696 12.2534 9.39954 12.2436L9.39773 12.2412C9.27773 12.0839 8.47327 11.0295 8.47327 9.93814C8.47327 8.91156 8.98654 8.37347 9.2228 8.12579C9.23899 8.10882 9.25388 8.09322 9.26721 8.07891C9.47514 7.85578 9.72092 7.8 9.87213 7.8C10.0233 7.8 10.1747 7.80138 10.3069 7.8079C10.3232 7.8087 10.3402 7.8086 10.3577 7.8085C10.4899 7.80774 10.6547 7.80679 10.8173 8.19047C10.8799 8.33817 10.9714 8.55716 11.068 8.78812C11.2632 9.25495 11.4788 9.77065 11.5167 9.84529C11.5734 9.95685 11.6112 10.087 11.5356 10.2358C11.5243 10.2581 11.5138 10.2791 11.5038 10.2992C11.447 10.4131 11.4052 10.4969 11.3088 10.6075C11.2709 10.651 11.2317 10.6979 11.1925 10.7448C11.1145 10.8381 11.0364 10.9315 10.9685 10.998C10.8549 11.1091 10.7367 11.2297 10.869 11.4528C11.0014 11.6759 11.4566 12.4057 12.131 12.9967C12.8559 13.632 13.486 13.9005 13.8054 14.0366C13.8677 14.0631 13.9182 14.0847 13.9553 14.1029C14.1821 14.2145 14.3144 14.1958 14.4467 14.0471C14.5791 13.8984 15.0138 13.3963 15.165 13.1732C15.3162 12.9502 15.4675 12.9874 15.6754 13.0617C15.8834 13.1361 16.9987 13.6752 17.2256 13.7868C17.2699 13.8086 17.3113 13.8282 17.3496 13.8465Z" fill=""/>
<path fill-rule="evenodd" clip-rule="evenodd" d="M13.0867 20.8453H13.0829C11.5635 20.8448 10.0705 20.4703 8.74442 19.7597L3.93164 21L5.21962 16.3781C4.42513 15.0254 4.00708 13.4909 4.00776 11.9189C4.00975 7.00107 8.08248 3 13.0866 3C15.5153 3.00103 17.7948 3.92992 19.5089 5.61588C21.223 7.30177 22.1664 9.54271 22.1654 11.9259C22.1633 16.8427 18.0923 20.8433 13.0867 20.8453ZM8.96723 18.1446L9.24277 18.3052C10.4013 18.9807 11.7294 19.3381 13.0834 19.3386H13.0865C17.2456 19.3386 20.6307 16.0128 20.6324 11.925C20.6331 9.94412 19.849 8.08154 18.4243 6.68023C16.9996 5.27891 15.105 4.50682 13.0895 4.50614C8.92719 4.50614 5.54208 7.83155 5.54042 11.919C5.53984 13.3199 5.93878 14.684 6.69413 15.8644L6.87355 16.1448L6.11125 18.8805L8.96723 18.1446Z" fill=""/>
</svg>
