<svg width="42" height="42" viewBox="0 0 42 42" fill="none" xmlns="http://www.w3.org/2000/svg">
<path opacity="0.4" d="M20.124 36.7498C29.3058 36.7498 36.749 29.3065 36.749 20.1248C36.749 10.943 29.3058 3.49976 20.124 3.49976C10.9423 3.49976 3.49902 10.943 3.49902 20.1248C3.49902 29.3065 10.9423 36.7498 20.124 36.7498Z" fill="#FFFEFE"/>
<path d="M37.2745 38.5C36.9595 38.5 36.6445 38.3775 36.417 38.15L33.162 34.895C32.6895 34.4225 32.6895 33.6525 33.162 33.1625C33.6345 32.69 34.4045 32.69 34.8945 33.1625L38.1495 36.4175C38.622 36.89 38.622 37.66 38.1495 38.15C37.9045 38.3775 37.5895 38.5 37.2745 38.5Z" fill="#FFFEFE"/>
<path d="M24.8486 19.1624H21.7861V16.0999C21.7861 15.3824 21.1911 14.7874 20.4736 14.7874C19.7561 14.7874 19.1611 15.3824 19.1611 16.0999V19.1624H16.0986C15.3811 19.1624 14.7861 19.7574 14.7861 20.4749C14.7861 21.1924 15.3811 21.7874 16.0986 21.7874H19.1611V24.8499C19.1611 25.5674 19.7561 26.1624 20.4736 26.1624C21.1911 26.1624 21.7861 25.5674 21.7861 24.8499V21.7874H24.8486C25.5661 21.7874 26.1611 21.1924 26.1611 20.4749C26.1611 19.7574 25.5661 19.1624 24.8486 19.1624Z" fill="#FFFEFE"/>
</svg>
