<svg overflow="visible" style="display: block;" width="212" height="36" viewBox="0 0 212 36" fill="none" xmlns="http://www.w3.org/2000/svg">
<path id="Vector" d="M0 1.59825H5.85661V23.7736H18.3264V1.59825H24.183V23.7736H27.7685L27.7287 36H21.9121V29.5671H0V1.59825ZM29.7247 1.59825H42.633C45.1291 1.59825 47.1212 2.30403 48.609 3.71585C50.0961 5.12767 50.8402 7.04545 50.8402 9.46947C50.8402 12.3995 49.5254 14.3574 46.8958 15.3428C49.5254 16.3818 50.8402 18.3797 50.8402 21.3362C50.8402 23.8668 50.0563 25.8778 48.4894 27.3697C46.922 28.8351 44.8503 29.5671 42.2744 29.5671H29.7247V1.59825ZM41.916 18.1799H35.5813V23.6938H41.5573C42.5933 23.6938 43.4297 23.4406 44.0672 22.9344C44.7047 22.4017 45.0233 21.7093 45.0233 20.8567C45.0233 20.031 44.7306 19.3785 44.1468 18.899C43.5622 18.4196 42.8184 18.1799 41.916 18.1799ZM41.916 7.4716H35.5813V12.3062H41.916C42.8451 12.3062 43.5892 12.0799 44.1468 11.627C44.7306 11.1741 45.0233 10.5749 45.0233 9.82892C45.0233 9.08323 44.7445 8.51058 44.1866 8.11095C43.629 7.68481 42.8721 7.4716 41.916 7.4716ZM53.7687 1.59825H74.1668V7.39178H59.6251V12.626H72.1748V18.4595H59.6251V23.7736H74.1668V29.5671H53.7687V1.59825ZM75.9018 1.59825H97.814V7.39178H89.7663V29.5671H83.9495V7.39178H75.9018V1.59825ZM99.6937 15.7824C99.6937 11.7336 101.009 8.29737 103.638 5.47373C106.294 2.62357 109.561 1.19862 113.438 1.19862C117.315 1.19862 120.596 2.62357 123.279 5.47373C125.963 8.29737 127.303 11.7336 127.303 15.7824C127.303 19.7248 125.963 23.0809 123.279 25.8513C120.596 28.5951 117.315 29.9667 113.438 29.9667C109.561 29.9667 106.294 28.5951 103.638 25.8513C101.009 23.0809 99.6937 19.7248 99.6937 15.7824ZM119.177 9.54929C117.635 7.84444 115.723 6.99215 113.438 6.99215C111.155 6.99215 109.255 7.84444 107.741 9.54929C106.254 11.2274 105.51 13.3053 105.51 15.7824C105.51 18.1531 106.254 20.1509 107.741 21.7757C109.255 23.374 111.155 24.1732 113.438 24.1732C115.723 24.1732 117.635 23.3606 119.177 21.7358C120.716 20.111 121.486 18.1266 121.486 15.7824C121.486 13.3053 120.716 11.2274 119.177 9.54929ZM132.95 23.6137C130.772 21.4294 129.683 18.7656 129.683 15.6227C129.683 12.4793 130.772 9.82893 132.95 7.67141C135.128 5.48712 137.904 4.14199 141.276 3.63576V0H146.774V3.59585C150.174 4.0753 152.95 5.4073 155.102 7.59159C157.28 9.77562 158.366 12.4528 158.366 15.6227C158.366 18.7924 157.28 21.4696 155.102 23.6538C152.95 25.8114 150.174 27.13 146.774 27.6094V31.1654H141.276V27.6094C137.904 27.1029 135.128 25.7714 132.95 23.6137ZM136.893 11.747C135.699 12.839 135.102 14.1177 135.102 15.5825C135.102 17.0477 135.699 18.3395 136.893 19.4583C138.089 20.5506 139.55 21.2829 141.276 21.656V9.54929C139.55 9.92213 138.089 10.6547 136.893 11.747ZM146.774 9.5892V21.656C148.394 21.2564 149.763 20.5104 150.879 19.4184C152.02 18.3264 152.591 17.0611 152.591 15.6227C152.591 14.1576 152.02 12.8789 150.879 11.7869C149.763 10.6946 148.394 9.96231 146.774 9.5892ZM160.778 15.7824C160.778 11.7336 162.092 8.29737 164.72 5.47373C167.375 2.62357 170.642 1.19862 174.522 1.19862C178.4 1.19862 181.68 2.62357 184.361 5.47373C187.045 8.29737 188.385 11.7336 188.385 15.7824C188.385 19.7248 187.045 23.0809 184.361 25.8513C181.68 28.5951 178.4 29.9667 174.522 29.9667C170.642 29.9667 167.375 28.5951 164.72 25.8513C162.092 23.0809 160.778 19.7248 160.778 15.7824ZM180.259 9.54929C178.717 7.84444 176.805 6.99215 174.522 6.99215C172.237 6.99215 170.339 7.84444 168.826 9.54929C167.336 11.2274 166.592 13.3053 166.592 15.7824C166.592 18.1531 167.336 20.1509 168.826 21.7757C170.339 23.374 172.237 24.1732 174.522 24.1732C176.805 24.1732 178.717 23.3606 180.259 21.7358C181.798 20.111 182.57 18.1266 182.57 15.7824C182.57 13.3053 181.798 11.2274 180.259 9.54929ZM197.936 29.5671H192.079V1.59825H201.96C205.067 1.59825 207.513 2.38384 209.29 3.95557C211.097 5.50051 212 7.73784 212 10.6681C212 13.5981 211.11 15.8223 209.332 17.3407C207.552 18.8323 205.096 19.5783 201.96 19.5783H197.936V29.5671ZM201.881 7.39178H197.936V13.7848H201.881C204.751 13.7848 206.183 12.6925 206.183 10.5082C206.183 9.54929 205.824 8.79021 205.109 8.23068C204.392 7.67141 203.316 7.39178 201.881 7.39178Z" fill="#DC0978"/>
</svg>
