<svg width="50" height="50" viewBox="0 0 50 50" fill="none" xmlns="http://www.w3.org/2000/svg">

<g id="&#208;&#158; &#208;&#189;&#208;&#176;&#209;&#129;">

<g id="Frame 36">

<g id="Frame 142">
<g id="Frame 140">
<g id="Frame 40">

<g id="happy-face-svgrepo-com 1" clip-path="url(#clip0_0_1)">
<path id="Vector" d="M24.9996 2.77783C20.6044 2.77783 16.308 4.08114 12.6536 6.52295C8.99914 8.96476 6.15087 12.4354 4.46892 16.496C2.78697 20.5566 2.3469 25.0247 3.20435 29.3354C4.0618 33.6461 6.17826 37.6057 9.28609 40.7135C12.3939 43.8214 16.3535 45.9378 20.6642 46.7953C24.9749 47.6527 29.4431 47.2127 33.5037 45.5307C37.5642 43.8488 41.0349 41.0005 43.4767 37.3461C45.9185 33.6916 47.2218 29.3952 47.2218 25.0001C47.2218 19.1064 44.8805 13.454 40.7131 9.28657C36.5456 5.1191 30.8933 2.77783 24.9996 2.77783ZM24.9996 44.4445C21.1538 44.4445 17.3944 43.3041 14.1968 41.1675C10.9992 39.0309 8.50696 35.9941 7.03525 32.4411C5.56355 28.8881 5.17848 24.9785 5.92875 21.2066C6.67902 17.4348 8.53092 13.9701 11.2503 11.2508C13.9696 8.5314 17.4343 6.6795 21.2062 5.92923C24.978 5.17896 28.8876 5.56403 32.4406 7.03573C35.9937 8.50743 39.0305 10.9997 41.167 14.1973C43.3036 17.3949 44.444 21.1543 44.444 25.0001C44.444 30.157 42.3954 35.1028 38.7489 38.7494C35.1023 42.3959 30.1566 44.4445 24.9996 44.4445Z" fill="#DC0978"/>
<path id="Vector_2" d="M15.1254 22.0695C16.6596 22.0695 17.9032 20.8258 17.9032 19.2917C17.9032 17.7576 16.6596 16.5139 15.1254 16.5139C13.5913 16.5139 12.3477 17.7576 12.3477 19.2917C12.3477 20.8258 13.5913 22.0695 15.1254 22.0695Z" fill="#DC0978"/>
<path id="Vector_3" d="M34.7934 22.0695C36.3275 22.0695 37.5712 20.8258 37.5712 19.2917C37.5712 17.7576 36.3275 16.5139 34.7934 16.5139C33.2593 16.5139 32.0156 17.7576 32.0156 19.2917C32.0156 20.8258 33.2593 22.0695 34.7934 22.0695Z" fill="#DC0978"/>
<path id="Vector_4" d="M25.1793 39.1805C27.7272 39.1838 30.2105 38.3789 32.272 36.8815C34.3335 35.384 35.8668 33.2713 36.6515 30.8472H13.707C14.4917 33.2713 16.025 35.384 18.0865 36.8815C20.148 38.3789 22.6313 39.1838 25.1793 39.1805Z" fill="#DC0978"/>
</g>
</g>
</g>
</g>
</g>
</g>
<defs>
<filter id="filter0_d_0_1" x="-467" y="-77" width="1226" height="212" filterUnits="userSpaceOnUse" color-interpolation-filters="sRGB">
<feFlood flood-opacity="0" result="BackgroundImageFix"/>
<feColorMatrix in="SourceAlpha" type="matrix" values="0 0 0 0 0 0 0 0 0 0 0 0 0 0 0 0 0 0 127 0" result="hardAlpha"/>
<feOffset dy="4"/>
<feGaussianBlur stdDeviation="6"/>
<feComposite in2="hardAlpha" operator="out"/>
<feColorMatrix type="matrix" values="0 0 0 0 0.802885 0 0 0 0 0.802885 0 0 0 0 0.802885 0 0 0 0.25 0"/>
<feBlend mode="normal" in2="BackgroundImageFix" result="effect1_dropShadow_0_1"/>
<feBlend mode="normal" in="SourceGraphic" in2="effect1_dropShadow_0_1" result="shape"/>
</filter>
<clipPath id="clip0_0_1">
<rect width="50" height="50" fill="white"/>
</clipPath>
</defs>
</svg>
