<svg overflow="visible" style="display: block;" width="29" height="29" viewBox="0 0 29 29" fill="none" xmlns="http://www.w3.org/2000/svg">
<g id="menu 1">
<path id="Vector" d="M27.7907 4.83428H9.0625C8.39414 4.83428 7.85322 4.29336 7.85322 3.625C7.85322 2.95664 8.39414 2.41572 9.0625 2.41572H27.7907C28.4591 2.41572 29 2.95664 29 3.625C29 4.29336 28.4591 4.83428 27.7907 4.83428ZM27.7907 26.5843H9.0625C8.39414 26.5843 7.85322 26.0434 7.85322 25.375C7.85322 24.7066 8.39414 24.1657 9.0625 24.1657H27.7907C28.4591 24.1657 29 24.7066 29 25.375C29 26.0434 28.4591 26.5843 27.7907 26.5843ZM27.7907 15.7093H9.0625C8.39414 15.7093 7.85322 15.1684 7.85322 14.5C7.85322 13.8316 8.39414 13.2907 9.0625 13.2907H27.7907C28.4591 13.2907 29 13.8316 29 14.5C29 15.1684 28.4591 15.7093 27.7907 15.7093Z" fill="#B3B3B3"/>
<path id="Vector_2" d="M1.20928 3.625C1.20928 3.86302 1.25616 4.09871 1.34725 4.31861C1.43833 4.53852 1.57184 4.73832 1.74015 4.90663C1.90845 5.07494 2.10826 5.20845 2.32816 5.29953C2.54807 5.39062 2.78376 5.4375 3.02178 5.4375C3.2598 5.4375 3.49549 5.39062 3.71539 5.29953C3.93529 5.20845 4.1351 5.07494 4.30341 4.90663C4.47171 4.73832 4.60522 4.53852 4.69631 4.31861C4.7874 4.09871 4.83428 3.86302 4.83428 3.625C4.83428 3.1443 4.64332 2.68328 4.30341 2.34337C3.9635 2.00346 3.50248 1.8125 3.02178 1.8125C2.54107 1.8125 2.08006 2.00346 1.74015 2.34337C1.40024 2.68328 1.20928 3.1443 1.20928 3.625Z" fill="#B3B3B3"/>
<path id="Vector_3" d="M1.20928 14.5C1.20928 14.738 1.25616 14.9737 1.34725 15.1936C1.43833 15.4135 1.57184 15.6133 1.74015 15.7816C1.90845 15.9499 2.10826 16.0834 2.32816 16.1745C2.54807 16.2656 2.78376 16.3125 3.02178 16.3125C3.2598 16.3125 3.49549 16.2656 3.71539 16.1745C3.93529 16.0834 4.1351 15.9499 4.30341 15.7816C4.47171 15.6133 4.60522 15.4135 4.69631 15.1936C4.7874 14.9737 4.83428 14.738 4.83428 14.5C4.83428 14.0193 4.64332 13.5583 4.30341 13.2184C3.9635 12.8785 3.50248 12.6875 3.02178 12.6875C2.54107 12.6875 2.08006 12.8785 1.74015 13.2184C1.40024 13.5583 1.20928 14.0193 1.20928 14.5Z" fill="#B3B3B3"/>
<path id="Vector_4" d="M1.20928 25.375C1.20928 25.613 1.25616 25.8487 1.34725 26.0686C1.43833 26.2885 1.57184 26.4883 1.74015 26.6566C1.90845 26.8249 2.10826 26.9584 2.32816 27.0495C2.54807 27.1406 2.78376 27.1875 3.02178 27.1875C3.2598 27.1875 3.49549 27.1406 3.71539 27.0495C3.93529 26.9584 4.1351 26.8249 4.30341 26.6566C4.47171 26.4883 4.60522 26.2885 4.69631 26.0686C4.7874 25.8487 4.83428 25.613 4.83428 25.375C4.83428 24.8943 4.64332 24.4333 4.30341 24.0934C3.9635 23.7535 3.50248 23.5625 3.02178 23.5625C2.54107 23.5625 2.08006 23.7535 1.74015 24.0934C1.40024 24.4333 1.20928 24.8943 1.20928 25.375Z" fill="#B3B3B3"/>
</g>
</svg>
